<?xml version="1.0" standalone="no"?>
<!DOCTYPE svg PUBLIC "-//W3C//DTD SVG 20010904//EN"
 "http://www.w3.org/TR/2001/REC-SVG-20010904/DTD/svg10.dtd">
<svg version="1.0" xmlns="http://www.w3.org/2000/svg"
 width="1200.000000pt" height="1200.000000pt" viewBox="0 0 1200.000000 1200.000000"
 preserveAspectRatio="xMidYMid meet">
<metadata>
Created by potrace 1.11, written by Peter Selinger 2001-2013
</metadata>
<g transform="translate(0.000000,1200.000000) scale(0.100000,-0.100000)"
fill="#000000" stroke="none">
<path d="M0 6000 l0 -6000 6000 0 6000 0 0 6000 0 6000 -6000 0 -6000 0 0
-6000z m6969 4033 c20 -86 1711 -8116 1711 -8124 0 -5 -334 -8 -752 -7 l-752
3 -152 834 c-84 459 -155 840 -158 848 -4 11 -159 13 -894 13 l-889 0 -10 -53
c-6 -28 -71 -411 -144 -850 l-133 -797 -747 0 -746 0 138 688 c76 378 352
1751 614 3052 262 1301 568 2824 681 3385 113 561 207 1028 210 1038 5 16 62
17 1009 17 l1003 0 11 -47z"/>
<path d="M5612 6682 c-183 -1066 -333 -1940 -332 -1944 0 -5 311 -8 691 -8
653 0 690 1 685 18 -4 12 -488 2668 -686 3761 -10 57 -20 105 -22 106 -2 2
-153 -868 -336 -1933z"/>
</g>
</svg>
