<?xml version="1.0" encoding="utf-8"?>
<!-- Generator: Adobe Illustrator 16.0.0, SVG Export Plug-In . SVG Version: 6.00 Build 0)  -->
<!DOCTYPE svg PUBLIC "-//W3C//DTD SVG 1.1//EN" "http://www.w3.org/Graphics/SVG/1.1/DTD/svg11.dtd">
<svg version="1.1" id="Layer_1" xmlns="http://www.w3.org/2000/svg" xmlns:xlink="http://www.w3.org/1999/xlink" x="0px" y="0px"
	 width="700px" height="700px" viewBox="0 0 700 700" enable-background="new 0 0 700 700" xml:space="preserve">
<line fill="none" stroke="#f24a00" stroke-width="12" stroke-linecap="round" stroke-linejoin="round" stroke-miterlimit="10" x1="49" y1="653.999" x2="651.667" y2="653.999"/>
<line fill="none" stroke="#f24a00" stroke-width="12" stroke-linecap="round" stroke-linejoin="round" stroke-miterlimit="10" x1="70" y1="653.999" x2="70" y2="538"/>
<line fill="none" stroke="#f24a00" stroke-width="12" stroke-linecap="round" stroke-linejoin="round" stroke-miterlimit="10" x1="70" y1="538" x2="169.5" y2="538"/>
<line fill="none" stroke="#f24a00" stroke-width="12" stroke-linecap="round" stroke-linejoin="round" stroke-miterlimit="10" x1="169.5" y1="653.999" x2="169.5" y2="493.5"/>
<line fill="none" stroke="#f24a00" stroke-width="12" stroke-linecap="round" stroke-linejoin="round" stroke-miterlimit="10" x1="169.5" y1="493.5" x2="440.5" y2="493.5"/>
<line fill="none" stroke="#f24a00" stroke-width="12" stroke-linecap="round" stroke-linejoin="round" stroke-miterlimit="10" x1="440.5" y1="496" x2="440.5" y2="653.999"/>
<line fill="none" stroke="#f24a00" stroke-width="12" stroke-linecap="round" stroke-linejoin="round" stroke-miterlimit="10" x1="440.5" y1="557.5" x2="631" y2="557.5"/>
<line fill="none" stroke="#f24a00" stroke-width="12" stroke-linecap="round" stroke-linejoin="round" stroke-miterlimit="10" x1="631" y1="557.5" x2="631" y2="653.999"/>
<rect x="192" y="538" fill="none" stroke="#f24a00" stroke-width="12" stroke-linecap="round" stroke-linejoin="round" stroke-miterlimit="10" width="42.5" height="23.5"/>
<rect x="253" y="538" fill="none" stroke="#f24a00" stroke-width="12" stroke-linecap="round" stroke-linejoin="round" stroke-miterlimit="10" width="42.5" height="23.5"/>
<rect x="314" y="538" fill="none" stroke="#f24a00" stroke-width="12" stroke-linecap="round" stroke-linejoin="round" stroke-miterlimit="10" width="42.5" height="23.5"/>
<rect x="375.5" y="538" fill="none" stroke="#f24a00" stroke-width="12" stroke-linecap="round" stroke-linejoin="round" stroke-miterlimit="10" width="42.5" height="23.5"/>
<line fill="none" stroke="#f24a00" stroke-width="12" stroke-linecap="round" stroke-linejoin="round" stroke-miterlimit="10" x1="138" y1="538" x2="155" y2="297.5"/>
<line fill="none" stroke="#f24a00" stroke-width="12" stroke-linecap="round" stroke-linejoin="round" stroke-miterlimit="10" x1="155" y1="297.5" x2="182" y2="297.5"/>
<line fill="none" stroke="#f24a00" stroke-width="12" stroke-linecap="round" stroke-linejoin="round" stroke-miterlimit="10" x1="182" y1="297.5" x2="195.5" y2="490"/>
<line fill="none" stroke="#f24a00" stroke-width="12" stroke-linecap="round" stroke-linejoin="round" stroke-miterlimit="10" x1="481" y1="557.5" x2="507.667" y2="159"/>
<line fill="none" stroke="#f24a00" stroke-width="12" stroke-linecap="round" stroke-linejoin="round" stroke-miterlimit="10" x1="507.667" y1="159" x2="572.333" y2="159"/>
<line fill="none" stroke="#f24a00" stroke-width="12" stroke-linecap="round" stroke-linejoin="round" stroke-miterlimit="10" x1="572.333" y1="159" x2="599" y2="554.334"/>
<line fill="none" stroke="#f24a00" stroke-width="12" stroke-linecap="round" stroke-linejoin="round" stroke-miterlimit="10" x1="503.469" y1="221.743" x2="576.735" y2="221.743"/>
<line fill="none" stroke="#f24a00" stroke-width="12" stroke-linecap="round" stroke-linejoin="round" stroke-miterlimit="10" x1="500.3" y1="269.087" x2="576.735" y2="269.087"/>
<line fill="none" stroke="#f24a00" stroke-width="12" stroke-linecap="round" stroke-linejoin="round" stroke-miterlimit="10" x1="497.097" y1="316.962" x2="582.981" y2="316.962"/>
<line fill="none" stroke="#f24a00" stroke-width="12" stroke-linecap="round" stroke-linejoin="round" stroke-miterlimit="10" x1="493.922" y1="364.396" x2="582.981" y2="364.396"/>
<line fill="none" stroke="#f24a00" stroke-width="12" stroke-linecap="round" stroke-linejoin="round" stroke-miterlimit="10" x1="490.757" y1="411.695" x2="589.417" y2="411.695"/>
<line fill="none" stroke="#f24a00" stroke-width="12" stroke-linecap="round" stroke-linejoin="round" stroke-miterlimit="10" x1="487.595" y1="458.95" x2="589.417" y2="458.95"/>
<line fill="none" stroke="#f24a00" stroke-width="12" stroke-linecap="round" stroke-linejoin="round" stroke-miterlimit="10" x1="484.382" y1="506.959" x2="596.069" y2="506.959"/>
<path fill="none" stroke="#f24a00" stroke-width="12" stroke-linecap="round" stroke-linejoin="round" stroke-miterlimit="10" d="
	M465.667,328.334c-65.167,21.666-136-27.334-136-114"/>
<path fill="none" stroke="#f24a00" stroke-width="12" stroke-linecap="round" stroke-linejoin="round" stroke-miterlimit="10" d="
	M289.5,119C214.159,170.44,269,261,333,250"/>
<path fill="none" stroke="#f24a00" stroke-width="12" stroke-linecap="round" stroke-linejoin="round" stroke-miterlimit="10" d="
	M387.5,86c-63-65.5-129.5,0-116.044,47.042"/>
<path fill="none" stroke="#f24a00" stroke-width="12" stroke-linecap="round" stroke-linejoin="round" stroke-miterlimit="10" d="
	M585.666,119C545.25,43.75,456.25,49.75,418.979,90.983"/>
<path fill="none" stroke="#f24a00" stroke-width="12" stroke-linecap="round" stroke-linejoin="round" stroke-miterlimit="10" d="
	M430.75,80.5c-14-12-39.25-19-61.598-9.073"/>
</svg>
