<svg
  xmlns="http://www.w3.org/2000/svg"
  viewBox="0 0 989 866"
>
  <g
    stroke="#f24a00"
    fill="#f24a00"
    stroke-width="0"
  >
    <path d="M979 865.7H10a10 10 0 0 1 0-20h969a10 10 0 0 1 0 20zM152 799.7h-24a10 10 0 0 1 0-20h24a10 10 0 0 1 0 20zM207 799.7h-24a10 10 0 0 1 0-20h24a10 10 0 0 1 0 20zM152 764.7h-24a10 10 0 0 1 0-20h24a10 10 0 0 1 0 20zM207 764.7h-24a10 10 0 0 1 0-20h24a10 10 0 0 1 0 20zM152 729.7h-24a10 10 0 0 1 0-20h24a10 10 0 0 1 0 20zM207 729.7h-24a10 10 0 0 1 0-20h24a10 10 0 0 1 0 20zM152 694.7h-24a10 10 0 0 1 0-20h24a10 10 0 0 1 0 20zM207 694.7h-24a10 10 0 0 1 0-20h24a10 10 0 0 1 0 20zM152 659.7h-24a10 10 0 0 1 0-20h24a10 10 0 0 1 0 20zM207 659.7h-24a10 10 0 0 1 0-20h24a10 10 0 0 1 0 20zM152 624.7h-24a10 10 0 0 1 0-20h24a10 10 0 0 1 0 20zM207 624.7h-24a10 10 0 0 1 0-20h24a10 10 0 0 1 0 20zM152 589.7h-24a10 10 0 0 1 0-20h24a10 10 0 0 1 0 20zM207 589.7h-24a10 10 0 0 1 0-20h24a10 10 0 0 1 0 20zM152 554.7h-24a10 10 0 0 1 0-20h24a10 10 0 0 1 0 20zM207 554.7h-24a10 10 0 0 1 0-20h24a10 10 0 0 1 0 20zM152 519.7h-24a10 10 0 1 1 0-20h24a10 10 0 0 1 0 20zM207 519.7h-24a10 10 0 1 1 0-20h24a10 10 0 0 1 0 20zM152 484.7h-24a10 10 0 0 1 0-20h24a10 10 0 1 1 0 20zM207 484.7h-24a10 10 0 0 1 0-20h24a10 10 0 1 1 0 20zM152 449.7h-24a10 10 0 0 1 0-20h24a10 10 0 1 1 0 20zM207 449.7h-24a10 10 0 0 1 0-20h24a10 10 0 1 1 0 20zM152 414.7h-24a10 10 0 0 1 0-20h24a10 10 0 1 1 0 20zM207 414.7h-24a10 10 0 0 1 0-20h24a10 10 0 1 1 0 20zM152 379.7h-24a10 10 0 0 1 0-20h24a10 10 0 1 1 0 20zM207 379.7h-24a10 10 0 0 1 0-20h24a10 10 0 1 1 0 20zM152 344.7h-24a10 10 0 0 1 0-20h24a10 10 0 0 1 0 20zM207 344.7h-24a10 10 0 0 1 0-20h24a10 10 0 1 1 0 20zM262 344.7h-24a10 10 0 0 1 0-20h24a10 10 0 0 1 0 20zM152 309.7h-24a10 10 0 0 1 0-20h24a10 10 0 0 1 0 20zM207 309.7h-24a10 10 0 0 1 0-20h24a10 10 0 0 1 0 20zM262 309.7h-24a10 10 0 0 1 0-20h24a10 10 0 0 1 0 20zM152 274.7h-24a10 10 0 0 1 0-20h24a10 10 0 0 1 0 20zM207 274.7h-24a10 10 0 0 1 0-20h24a10 10 0 0 1 0 20zM262 274.7h-24a10 10 0 0 1 0-20h24a10 10 0 0 1 0 20zM152 239.7h-24a10 10 0 0 1 0-20h24a10 10 0 0 1 0 20zM207 239.7h-24a10 10 0 0 1 0-20h24a10 10 0 0 1 0 20zM262 239.7h-24a10 10 0 0 1 0-20h24a10 10 0 0 1 0 20zM152 204.7h-24a10 10 0 0 1 0-20h24a10 10 0 0 1 0 20zM207 204.7h-24a10 10 0 0 1 0-20h24a10 10 0 0 1 0 20zM262 204.7h-24a10 10 0 0 1 0-20h24a10 10 0 0 1 0 20z"/>
    <path d="M433 865.7H215a10 10 0 0 1-10-10v-490a10 10 0 0 1 10-10h218a10 10 0 0 1 10 10v490a10 10 0 0 1-10 10zm-208-20h198v-470H225v470z"/>
    <path d="M205 855.7V846H105V170h180v186h20V159.7a9.73 9.73 0 0 0-10-9.7H95a9.78 9.78 0 0 0-10 9.7v696A10.28 10.28 0 0 0 95 866h120a10.28 10.28 0 0 1-10-10.3zM612 758v27H443v20h179a10.23 10.23 0 0 0 10-10.3v-47a9.73 9.73 0 0 0-10-9.7H443v20zM612 672v27H443v20h179a10.23 10.23 0 0 0 10-10.3v-47a9.73 9.73 0 0 0-10-9.7H443v20zM612 586v27H443v20h179a10.23 10.23 0 0 0 10-10.3v-47a9.73 9.73 0 0 0-10-9.7H443v20zM612 500v27H443v20h179a10.23 10.23 0 0 0 10-10.3v-47a9.73 9.73 0 0 0-10-9.7H443v20zM612 414v27H443v20h179a10.23 10.23 0 0 0 10-10.3v-47a9.73 9.73 0 0 0-10-9.7H443v20zM622 308H419a9.78 9.78 0 0 0-10 9.7V356h24a9.73 9.73 0 0 1 10 9.7v9.3h179a10.23 10.23 0 0 0 10-10.3v-47a9.73 9.73 0 0 0-10-9.7zm-10 47H429v-27h183zM632 232a10 10 0 0 0-10-10H419a10 10 0 0 0-10 10v47a10 10 0 0 0 10 10h203a10 10 0 0 0 10-10zm-20 37H429v-27h183zM632 146a10 10 0 0 0-10-10H419a10 10 0 0 0-10 10v47a10 10 0 0 0 10 10h203a10 10 0 0 0 10-10zm-20 37H429v-27h183zM632 60a10 10 0 0 0-10-10H419a10 10 0 0 0-10 10v47a10 10 0 0 0 10 10h203a10 10 0 0 0 10-10zm-20 37H429V70h183z"/>
    <path d="M667 0H377a9.78 9.78 0 0 0-10 9.7V356h20V20h270v826H443v9.7a10.24 10.24 0 0 1-10 10.3h234a10.23 10.23 0 0 0 10-10.3V9.7A9.73 9.73 0 0 0 667 0z"/>
    <path d="M854 793a10 10 0 0 0 0-20H677v20zM854 755a10 10 0 0 0 0-20H677v20zM854 717a10 10 0 0 0 0-20H677v20zM854 679a10 10 0 0 0 0-20H677v20zM854 641a10 10 0 0 0 0-20H677v20zM854 603a10 10 0 0 0 0-20H677v20zM854 565a10 10 0 0 0 0-20H677v20zM854 527a10 10 0 0 0 0-20H677v20zM854 489a10 10 0 0 0 0-20H677v20zM854 451a10 10 0 0 0 0-20H677v20zM854 413a10 10 0 0 0 0-20H677v20zM854 375a10 10 0 0 0 0-20H677v20zM854 337a10 10 0 0 0 0-20H677v20zM854 299a10 10 0 0 0 0-20H677v20zM854 261a10 10 0 0 0 0-20H677v20zM854 223a10 10 0 0 0 0-20H677v20zM854 185a10 10 0 0 0 0-20H677v20z"/>
    <path d="M895 108H677v20h208v718H677v9.7c0 4.73-3.26 9.3-7.66 10.3H895a10.23 10.23 0 0 0 10-10.3v-738a9.73 9.73 0 0 0-10-9.7zM302 802.7h-42a10 10 0 0 1-10-10v-39a10 10 0 0 1 10-10h42a10 10 0 0 1 10 10v39a10 10 0 0 1-10 10zm-32-20h22v-19h-22zM386 802.7h-42a10 10 0 0 1-10-10v-39a10 10 0 0 1 10-10h42a10 10 0 0 1 10 10v39a10 10 0 0 1-10 10zm-32-20h22v-19h-22zM302 732.7h-42a10 10 0 0 1-10-10v-39a10 10 0 0 1 10-10h42a10 10 0 0 1 10 10v39a10 10 0 0 1-10 10zm-32-20h22v-19h-22zM386 732.7h-42a10 10 0 0 1-10-10v-39a10 10 0 0 1 10-10h42a10 10 0 0 1 10 10v39a10 10 0 0 1-10 10zm-32-20h22v-19h-22zM302 662.7h-42a10 10 0 0 1-10-10v-39a10 10 0 0 1 10-10h42a10 10 0 0 1 10 10v39a10 10 0 0 1-10 10zm-32-20h22v-19h-22zM386 662.7h-42a10 10 0 0 1-10-10v-39a10 10 0 0 1 10-10h42a10 10 0 0 1 10 10v39a10 10 0 0 1-10 10zm-32-20h22v-19h-22zM302 592.7h-42a10 10 0 0 1-10-10v-39a10 10 0 0 1 10-10h42a10 10 0 0 1 10 10v39a10 10 0 0 1-10 10zm-32-20h22v-19h-22zM386 592.7h-42a10 10 0 0 1-10-10v-39a10 10 0 0 1 10-10h42a10 10 0 0 1 10 10v39a10 10 0 0 1-10 10zm-32-20h22v-19h-22zM302 522.7h-42a10 10 0 0 1-10-10v-39a10 10 0 0 1 10-10h42a10 10 0 0 1 10 10v39a10 10 0 0 1-10 10zm-32-20h22v-19h-22zM386 522.7h-42a10 10 0 0 1-10-10v-39a10 10 0 0 1 10-10h42a10 10 0 0 1 10 10v39a10 10 0 0 1-10 10zm-32-20h22v-19h-22zM302 452.7h-42a10 10 0 0 1-10-10v-39a10 10 0 0 1 10-10h42a10 10 0 0 1 10 10v39a10 10 0 0 1-10 10zm-32-20h22v-19h-22zM386 452.7h-42a10 10 0 0 1-10-10v-39a10 10 0 0 1 10-10h42a10 10 0 0 1 10 10v39a10 10 0 0 1-10 10zm-32-20h22v-19h-22z"/>
  </g>
</svg>
