<svg
  xmlns="http://www.w3.org/2000/svg"
  viewBox="0 0 989 978.53"
>
  <g
    stroke="#f24a00"
    fill="#f24a00"
    stroke-width="0"
  >
    <path d="M979 978.53H10a10 10 0 0 1 0-20h969a10 10 0 0 1 0 20z"/>
    <path d="M640.14 978.53H204a10 10 0 0 1-10-10v-258a10 10 0 0 1 10-10h436.14a10 10 0 0 1 10 10v258a10 10 0 0 1-10 10zm-426.14-20h416.14v-238H214z"/>
    <path d="M204 978.53H44a10 10 0 0 1-10-10v-188a10 10 0 0 1 10-10h160a10 10 0 0 1 10 10v188a10 10 0 0 1-10 10zm-150-20h140v-168H54zM946 978.53H640.14a10 10 0 0 1-10-10v-156a10 10 0 0 1 10-10H946a10 10 0 0 1 10 10v156a10 10 0 0 1-10 10zm-295.86-20H936v-136H650.14zM603 830.53h-69a10 10 0 0 1-10-10v-40a10 10 0 0 1 10-10h69a10 10 0 0 1 10 10v40a10 10 0 0 1-10 10zm-59-20h49v-20h-49zM505 830.53h-69a10 10 0 0 1-10-10v-40a10 10 0 0 1 10-10h69a10 10 0 0 1 10 10v40a10 10 0 0 1-10 10zm-59-20h49v-20h-49zM407 830.53h-69a10 10 0 0 1-10-10v-40a10 10 0 0 1 10-10h69a10 10 0 0 1 10 10v40a10 10 0 0 1-10 10zm-59-20h49v-20h-49zM309 830.53h-69a10 10 0 0 1-10-10v-40a10 10 0 0 1 10-10h69a10 10 0 0 1 10 10v40a10 10 0 0 1-10 10zm-59-20h49v-20h-49z"/>
    <path d="M893 822.53H704.58a10 10 0 0 1-10-10.64L736 169.49a10 10 0 0 1 10-9.36h105.58a10 10 0 0 1 10 9.36L903 811.89a10 10 0 0 1-10 10.64zm-177.75-20h167.08l-40.13-622.4h-86.82z"/>
    <path d="M858 283.82H740a10 10 0 0 1 0-20h118a10 10 0 0 1 0 20zM863 359.82H735a10 10 0 0 1 0-20h128a10 10 0 0 1 0 20zM868 435.82H730a10 10 0 0 1 0-20h138a10 10 0 0 1 0 20zM873 511.82H725a10 10 0 0 1 0-20h148a10 10 0 0 1 0 20zM878 587.82H720a10 10 0 0 1 0-20h158a10 10 0 0 1 0 20zM883 663.82H715a10 10 0 0 1 0-20h168a10 10 0 0 1 0 20zM888 739.82H710a10 10 0 0 1 0-20h178a10 10 0 0 1 0 20z"/>
    <path d="M627.08 462.81a169.73 169.73 0 0 1-165.77-133.35c-3.1.23-6.21.35-9.31.35a124.68 124.68 0 0 1-97.21-202.74A113.15 113.15 0 0 1 467.07 0a112.58 112.58 0 0 1 59.15 16.68 127.91 127.91 0 0 1 99.11 17.22 181.07 181.07 0 0 1 255.09 70.17 10 10 0 0 1-17.7 9.3 161.06 161.06 0 0 0-232-59.14 10 10 0 0 1-11.5-.23 107.86 107.86 0 0 0-92.1-16.89 10 10 0 0 1-8.22-1.35 93.15 93.15 0 0 0-145 77.4 94.52 94.52 0 0 0 1.25 15.29 10 10 0 0 1-2.31 8.18A104.67 104.67 0 0 0 452 309.81a106.85 106.85 0 0 0 15.91-1.2 10 10 0 0 1 11.38 8.31 149.82 149.82 0 0 0 197.39 117.49 10 10 0 1 1 6.63 18.87 169.56 169.56 0 0 1-56.23 9.53z"/>
    <path d="M469.4 328.49a10 10 0 0 1-9.82-8.15 392.17 392.17 0 0 1-5.58-57.59 10 10 0 1 1 20-.44 375.94 375.94 0 0 0 5.24 54.34 10 10 0 0 1-8 11.67 9.72 9.72 0 0 1-1.84.17zM365.32 140a10 10 0 0 1-7.84-16.17c.49-.62 12.35-15.46 34.83-26.33a10 10 0 1 1 8.71 18c-18.11 8.77-27.78 20.64-27.87 20.75a10 10 0 0 1-7.83 3.75zM554 66.53a10 10 0 0 1-8.33-4.46c-6.87-10.31-22-22.71-27.19-26.62a10 10 0 1 1 12-16c.88.66 21.69 16.29 31.86 31.55A10 10 0 0 1 554 66.53zM604.44 71.86a10 10 0 0 1-7.67-16.4c5-6 18.78-15.23 22.88-17.91a10 10 0 1 1 11 16.73c-7.21 4.72-16.32 11.41-18.47 14a10 10 0 0 1-7.74 3.58zM204 790.53h-50.89a10 10 0 0 1-10-10.7l27-388.4a10 10 0 0 1 10-9.31h43.49a10 10 0 0 1 10 9.31l22.13 318.4a10 10 0 0 1-10 10.7H214v60a10 10 0 0 1-10 10zm-40.17-20H194v-60a10 10 0 0 1 10-10h31l-20.72-298.41h-24.84z"/>
  </g>
</svg>
