<svg
  xmlns="http://www.w3.org/2000/svg"
  viewBox="0 0 989 945.05"
>
  <g
    stroke="#f24a00"
    fill="#f24a00"
    stroke-width="0"
  >
    <path d="M979 944.75H10a10 10 0 0 1 0-20h969a10 10 0 0 1 0 20z"/>
    <path d="M707 944.75H309a10 10 0 0 1-10-10v-487a10 10 0 0 1 10-10h398a10 10 0 0 1 10 10v487a10 10 0 0 1-10 10zm-388-20h378v-467H319z"/>
    <path d="M760.74 457.75H255.26a10 10 0 0 1-5.74-18.18l252.74-177.4a10 10 0 0 1 11.48 0l252.74 177.4a10 10 0 0 1-5.74 18.18zm-473.83-20h442.17L508 282.57z"/>
    <path d="M508 411.6a52.55 52.55 0 1 1 52.55-52.55A52.6 52.6 0 0 1 508 411.6zm0-85.1a32.55 32.55 0 1 0 32.55 32.55A32.58 32.58 0 0 0 508 326.5z"/>
    <path d="M508 412.05a10 10 0 0 1-10-10v-85a10 10 0 1 1 20 0v85a10 10 0 0 1-10 10z"/>
    <path d="M550 370.05h-85a10 10 0 0 1 0-20h85a10 10 0 0 1 0 20zM673.08 944.75H511a10 10 0 0 1-10-10V568.33a10 10 0 0 1 10-10h162.08a10 10 0 0 1 10 10v366.42a10 10 0 0 1-10 10zm-152.08-20h142.08V578.33H521zM476.59 782.32h-138a10 10 0 0 1-10-10v-204a10 10 0 0 1 10-10h138a10 10 0 0 1 10 10v204a10 10 0 0 1-10 10zm-128-20h118v-184h-118z"/>
    <path d="M559 783.05h-19a10 10 0 0 1 0-20h19a10 10 0 0 1 0 20zM268 739.88H16a10 10 0 0 1-9.77-12.15l126-572.26a10 10 0 0 1 19.54 0l126 572.26a10 10 0 0 1-9.77 12.15zm-239.56-20h227.12L142 204.13z"/>
    <path d="M165.25 944.75h-46.5a10 10 0 0 1-10-10.43l23.25-536a10 10 0 0 1 20 0l23.25 536a10 10 0 0 1-10 10.43zm-36.06-20h25.61L142 629.51z"/>
    <path d="M153.33 669.8a10 10 0 0 1-3.74-19.28l91.18-36.66a10 10 0 1 1 7.46 18.56l-91.18 36.66a10 10 0 0 1-3.72.72zM134 594.27a10 10 0 0 1-4.49-1.06l-77.38-38.89a10 10 0 0 1 9-17.87l77.34 38.89a10 10 0 0 1-4.5 18.93zM144.15 458.27a10 10 0 0 1-4.07-19.14L196.39 414a10 10 0 1 1 8.15 18.26l-56.32 25.14a10 10 0 0 1-4.07.87zM179.56 338.24a10 10 0 0 1-4.39-1l-67.83-33.15a10 10 0 0 1 8.78-18L184 319.25a10 10 0 0 1-4.4 19zM798.67 943.42H764a10 10 0 0 1-10-10V776.75a10 10 0 0 1 4.31-8.22l17.33-12a10 10 0 0 1 11.38 0l17.34 12a10 10 0 0 1 4.31 8.22v156.67a10 10 0 0 1-10 10zm-24.67-20h14.67V782l-7.34-5.08L774 782v141.42zM872.67 943.42H838a10 10 0 0 1-10-10V776.75a10 10 0 0 1 4.31-8.22l17.33-12a10 10 0 0 1 11.38 0l17.34 12a10 10 0 0 1 4.31 8.22v156.67a10 10 0 0 1-10 10zm-24.67-20h14.67V782l-7.34-5.08L848 782v141.42zM944.67 943.42H910a10 10 0 0 1-10-10V776.75a10 10 0 0 1 4.31-8.22l17.33-12a10 10 0 0 1 11.38 0l17.34 12a10 10 0 0 1 4.31 8.22v156.67a10 10 0 0 1-10 10zm-24.67-20h14.67V782l-7.34-5.08L920 782v141.42z"/>
    <path d="M910 813.42h-37.33a10 10 0 0 1 0-20H910a10 10 0 0 1 0 20zM838 813.42h-39.33a10 10 0 0 1 0-20H838a10 10 0 0 1 0 20zM764 840.08h-57a10 10 0 0 1-10-10v-26.66a10 10 0 0 1 10-10h57a10 10 0 0 1 0 20h-47v6.66h47a10 10 0 0 1 0 20zM838 840.08h-39.33a10 10 0 0 1 0-20H838a10 10 0 0 1 0 20zM910 840.08h-37.33a10 10 0 0 1 0-20H910a10 10 0 0 1 0 20zM974.67 840.08h-30a10 10 0 0 1 0-20h20v-6.66h-20a10 10 0 0 1 0-20h30a10 10 0 0 1 10 10v26.66a10 10 0 0 1-10 10zM764 909.75h-57a10 10 0 0 1-10-10v-26.67a10 10 0 0 1 10-10h57a10 10 0 0 1 0 20h-47v6.67h47a10 10 0 0 1 0 20zM838 909.75h-39.33a10 10 0 0 1 0-20H838a10 10 0 0 1 0 20zM910 909.75h-37.33a10 10 0 0 1 0-20H910a10 10 0 0 1 0 20zM974.67 909.75h-30a10 10 0 0 1 0-20h20v-6.67h-20a10 10 0 0 1 0-20h30a10 10 0 0 1 10 10v26.67a10 10 0 0 1-10 10zM910 883.08h-37.33a10 10 0 0 1 0-20H910a10 10 0 0 1 0 20zM838 883.08h-39.33a10 10 0 0 1 0-20H838a10 10 0 0 1 0 20z"/>
    <path d="M872 945.05a10 10 0 0 1-10-10v-258a10 10 0 0 1 20 0v258a10 10 0 0 1-10 10z"/>
    <path d="M872 681.65a111.82 111.82 0 1 1 111.82-111.82A111.94 111.94 0 0 1 872 681.65zM872 478a91.82 91.82 0 1 0 91.82 91.82A91.92 91.92 0 0 0 872 478z"/>
    <path d="M872 723.83a10 10 0 0 1-2.23-.25 99 99 0 0 1-29.1-12.67c-19.87-13-29-31.15-26.31-52.36a10 10 0 0 1 19.85 2.5c-4.07 32.39 38.22 42.61 40 43a10 10 0 0 1-2.21 19.78zM764 189.5a94.75 94.75 0 1 1 94.75-94.75A94.85 94.85 0 0 1 764 189.5zM764 20a74.75 74.75 0 1 0 74.75 74.75A74.83 74.83 0 0 0 764 20z"/>
    <path d="M736 90.05H540a10 10 0 0 1 0-20h196a10 10 0 0 1 0 20zM883 137.05H781a10 10 0 1 1 0-20h102a10 10 0 0 1 0 20zM339 137.05h-71a10 10 0 1 1 0-20h71a10 10 0 0 1 0 20z"/>
  </g>
</svg>
