<?xml version="1.0" encoding="utf-8"?>
<!-- Generator: Adobe Illustrator 22.1.0, SVG Export Plug-In . SVG Version: 6.00 Build 0)  -->
<svg version="1.1" id="Слой_1" xmlns="http://www.w3.org/2000/svg" xmlns:xlink="http://www.w3.org/1999/xlink" x="0px" y="0px"
	 viewBox="0 0 989 978.5" style="enable-background:new 0 0 989 978.5;" xml:space="preserve">

<g
  stroke="#f24a00"
  fill="none"
  stroke-width="3"
>
	<path class="st0" d="M979,978.5H10c-5.5,0-10-4.5-10-10s4.5-10,10-10h969c5.5,0,10,4.5,10,10S984.5,978.5,979,978.5z"/>
	<path class="st0" d="M640.1,978.5H204c-5.5,0-10-4.5-10-10v-258c0-5.5,4.5-10,10-10h436.1c5.5,0,10,4.5,10,10v258
		C650.1,974.1,645.7,978.5,640.1,978.5z M214,958.5h416.1v-238H214V958.5z"/>
	<path class="st0" d="M204,978.5H44c-5.5,0-10-4.5-10-10v-188c0-5.5,4.5-10,10-10h160c5.5,0,10,4.5,10,10v188
		C214,974.1,209.5,978.5,204,978.5z M54,958.5h140v-168H54V958.5z M946,978.5H640.1c-5.5,0-10-4.5-10-10v-156c0-5.5,4.5-10,10-10
		H946c5.5,0,10,4.5,10,10v156C956,974.1,951.5,978.5,946,978.5z M650.1,958.5H936v-136H650.1V958.5z M603,830.5h-69
		c-5.5,0-10-4.5-10-10v-40c0-5.5,4.5-10,10-10h69c5.5,0,10,4.5,10,10v40C613,826.1,608.5,830.5,603,830.5z M544,810.5h49v-20h-49
		V810.5z M505,830.5h-69c-5.5,0-10-4.5-10-10v-40c0-5.5,4.5-10,10-10h69c5.5,0,10,4.5,10,10v40C515,826.1,510.5,830.5,505,830.5z
		 M446,810.5h49v-20h-49V810.5z M407,830.5h-69c-5.5,0-10-4.5-10-10v-40c0-5.5,4.5-10,10-10h69c5.5,0,10,4.5,10,10v40
		C417,826.1,412.5,830.5,407,830.5z M348,810.5h49v-20h-49V810.5z M309,830.5h-69c-5.5,0-10-4.5-10-10v-40c0-5.5,4.5-10,10-10h69
		c5.5,0,10,4.5,10,10v40C319,826.1,314.5,830.5,309,830.5z M250,810.5h49v-20h-49V810.5z"/>
	<path class="st0" d="M893,822.5H704.6c-5.5,0-10-4.5-10-10c0-0.2,0-0.4,0-0.7L736,169.5c0.3-5.3,4.7-9.4,10-9.4h105.6
		c5.3,0,9.7,4.1,10,9.4L903,811.9c0.4,5.5-3.8,10.3-9.3,10.6C893.4,822.5,893.2,822.5,893,822.5z M715.2,802.5h167.1l-40.1-622.4
		h-86.8L715.2,802.5z"/>
	<path class="st0" d="M858,283.8H740c-5.5,0-10-4.5-10-10s4.5-10,10-10h118c5.5,0,10,4.5,10,10S863.5,283.8,858,283.8z M863,359.8
		H735c-5.5,0-10-4.5-10-10s4.5-10,10-10h128c5.5,0,10,4.5,10,10S868.5,359.8,863,359.8z M868,435.8H730c-5.5,0-10-4.5-10-10
		s4.5-10,10-10h138c5.5,0,10,4.5,10,10S873.5,435.8,868,435.8z M873,511.8H725c-5.5,0-10-4.5-10-10s4.5-10,10-10h148
		c5.5,0,10,4.5,10,10S878.5,511.8,873,511.8z M878,587.8H720c-5.5,0-10-4.5-10-10s4.5-10,10-10h158c5.5,0,10,4.5,10,10
		S883.5,587.8,878,587.8z M883,663.8H715c-5.5,0-10-4.5-10-10s4.5-10,10-10h168c5.5,0,10,4.5,10,10S888.5,663.8,883,663.8z
		 M888,739.8H710c-5.5,0-10-4.5-10-10s4.5-10,10-10h178c5.5,0,10,4.5,10,10S893.5,739.8,888,739.8z"/>
	<path class="st0" d="M627.1,462.8c-79.7,0-148.7-55.5-165.8-133.4c-3.1,0.2-6.2,0.4-9.3,0.4c-68.9,0-124.7-55.8-124.7-124.7
		c0-28.4,9.7-55.9,27.5-78c-7.7-62,36.4-118.5,98.4-126.2c4.6-0.6,9.3-0.9,13.9-0.9c20.9,0,41.4,5.7,59.2,16.7
		c34-8,69.8-1.8,99.1,17.2c85.2-52.3,196.7-25.7,249.1,59.5c2.1,3.5,4.1,7,6,10.6c2.5,4.9,0.4,10.9-4.5,13.4
		c-4.8,2.4-10.6,0.6-13.2-4.1C821.4,34.6,724,4.3,645.3,45.6c-5,2.6-9.9,5.5-14.5,8.6c-3.5,2.4-8.1,2.3-11.5-0.2
		c-26.5-19.4-60.4-25.6-92.1-16.9c-2.8,0.8-5.8,0.3-8.2-1.3C476.2,7.1,418.3,18.6,389.7,61.3c-10.3,15.3-15.8,33.4-15.8,51.9
		c0,5.1,0.4,10.2,1.2,15.3c0.5,2.9-0.4,5.9-2.3,8.2c-37.8,43.7-33.1,109.8,10.6,147.6c19,16.5,43.4,25.5,68.5,25.5
		c5.3,0,10.6-0.4,15.9-1.2c5.4-0.8,10.5,2.9,11.4,8.3c13.2,81.7,90.1,137.2,171.8,124c8.7-1.4,17.3-3.6,25.6-6.5
		c5.2-1.8,10.9,0.9,12.8,6.1s-0.9,10.9-6.1,12.8C665.2,459.6,646.2,462.8,627.1,462.8L627.1,462.8z"/>
	<path class="st0" d="M469.4,328.5c-4.8,0-8.9-3.4-9.8-8.1c-3.3-19-5.1-38.3-5.6-57.6c-0.1-5.5,4.3-10.1,9.8-10.2s10.1,4.3,10.2,9.8
		c0.4,18.2,2.2,36.4,5.2,54.3c1,5.4-2.6,10.7-8,11.7c0,0,0,0,0,0C470.6,328.4,470,328.5,469.4,328.5L469.4,328.5z M365.3,140
		c-5.5,0-10-4.5-10-10c0-2.2,0.8-4.4,2.1-6.1c0.5-0.6,12.4-15.5,34.8-26.3c4.9-2.5,10.9-0.5,13.4,4.4c2.5,4.9,0.5,10.9-4.4,13.4
		c-0.1,0.1-0.2,0.1-0.3,0.2c-18.1,8.8-27.8,20.6-27.9,20.8C371.2,138.6,368.4,140,365.3,140z M554,66.5c-3.3,0-6.5-1.7-8.3-4.5
		c-6.9-10.3-22-22.7-27.2-26.6c-4.4-3.3-5.3-9.6-2-14s9.6-5.3,14-2l0,0c0.9,0.7,21.7,16.3,31.9,31.5c3.1,4.6,1.8,10.8-2.8,13.9
		C557.9,66,556,66.5,554,66.5z M604.4,71.9c-5.5,0-10-4.5-10-10c0-2.3,0.8-4.6,2.3-6.4c5-6,18.8-15.2,22.9-17.9
		c4.6-3,10.8-1.8,13.9,2.9c3,4.6,1.8,10.8-2.9,13.9l0,0c-7.2,4.7-16.3,11.4-18.5,14C610.3,70.6,607.4,71.9,604.4,71.9L604.4,71.9z
		 M204,790.5h-50.9c-5.5,0-10-4.5-10-10c0-0.2,0-0.5,0-0.7l27-388.4c0.4-5.3,4.7-9.3,10-9.3h43.5c5.3,0,9.6,4.1,10,9.3l22.1,318.4
		c0.4,5.5-3.8,10.3-9.3,10.7c-0.2,0-0.5,0-0.7,0H214v60C214,786.1,209.5,790.5,204,790.5z M163.8,770.5H194v-60c0-5.5,4.5-10,10-10
		h31l-20.7-298.4h-24.8L163.8,770.5z"/>
</g>
</svg>
