<?xml version="1.0" encoding="utf-8"?>
<!-- Generator: Adobe Illustrator 24.3.0, SVG Export Plug-In . SVG Version: 6.00 Build 0)  -->
<svg version="1.1" id="레이어_1" xmlns="http://www.w3.org/2000/svg" xmlns:xlink="http://www.w3.org/1999/xlink" x="0px"
	 y="0px" viewBox="0 0 50 50" style="enable-background:new 0 0 50 50;" xml:space="preserve">
<style type="text/css">
	.st0{fill:#FFFFFF;}
	.st1{fill:#AA3A23;}
	.st2{fill:#00224A;}
</style>
<g>
	<circle class="st0" cx="27.3" cy="24.6" r="6"/>
	<path class="st1" d="M27.2,18.5c-3.4,0-6.2,2.8-6.2,6.2s2.8,6.2,6.2,6.2c3.4,0,6.2-2.8,6.2-6.2C33.5,21.3,30.7,18.5,27.2,18.5z
		 M26.4,24.3c-1.1,1.1-2.7,1.4-3.4,0.6c-0.7-0.8-0.4-2.3,0.7-3.4c1.1-1.1,2.7-1.4,3.4-0.6C27.9,21.6,27.6,23.1,26.4,24.3z
		 M30.8,28.4c-0.6,0.6-1.5,0.8-1.9,0.4c-0.4-0.4-0.2-1.3,0.4-1.9c0.6-0.6,1.5-0.8,1.9-0.4C31.6,26.9,31.5,27.8,30.8,28.4z"/>
	<path class="st2" d="M27.5,35.6L27.5,35.6c3.5,0,6.5-1,9-2.3L30,39.6c-0.6,0.6-0.7,1.7,0,2.3c0.6,0.6,1.7,0.7,2.3,0l6.5-6.3
		l-2.4,6.5c-0.3,0.9,0.1,1.8,1,2.1c0.9,0.3,1.8-0.1,2.1-1l3.1-8.4v4c0,0.9,0.7,1.6,1.6,1.6c0.9,0,1.4-0.8,1.6-1.6
		c0,0,2.5-7.7,0-14.1S35.7,14.6,30.4,14l-0.2,0c-0.6,0-1.1,0.5-1.1,1.1c0,0.5,0.3,0.9,0.8,1.1l0.1,0c3.7,1.1,6.4,4.5,6.4,8.5
		c0,4.9-3.9,8.8-8.8,8.9h-0.1c-0.6,0-1,0.5-1,1C26.5,35.1,26.9,35.6,27.5,35.6z"/>
	<path class="st2" d="M26.9,13.9L26.9,13.9c-3.5,0-6.5,1-9,2.3l6.5-6.3c0.6-0.6,0.7-1.7,0-2.3c-0.6-0.6-1.7-0.7-2.3,0l-6.5,6.3
		l2.4-6.5c0.3-0.9-0.1-1.8-1-2.1c-0.9-0.3-1.8,0.1-2.1,1l-3.1,8.4v-4c0-0.9-0.7-1.6-1.6-1.6s-1.4,0.8-1.6,1.6c0,0-2.5,7.7,0,14.1
		s10.1,10.2,15.4,10.9l0.2,0c0.6,0,1.1-0.5,1.1-1.1c0-0.5-0.3-0.9-0.8-1.1l-0.1,0c-3.7-1.1-6.4-4.5-6.4-8.5c0-4.9,3.9-8.8,8.8-8.9
		h0.1c0.6,0,1-0.5,1-1S27.5,13.9,26.9,13.9z"/>
	<path class="st0" d="M30.8,4c0.1,0,0.5,0,1.2,0.1c0.1,0,0.1,0,0.2,0c0.1,0,0.2,0,0.2,0c0.3,0,0.5,0.1,0.6,0.2c0,0,0.1,0.1,0.1,0.1
		c0,0,0.1,0.1,0,0.2c0,0.5-0.1,1.1-0.2,2C33,8.1,32.8,9,32.8,9.2c-0.1,0.3-0.5,0.5-1,0.4c-0.2,0-0.5,0-0.9-0.1c-0.4,0-0.6,0-0.7,0
		c0,0-0.1,0.5-0.1,1.5c0,0.3,0,0.5-0.1,0.6c0,0.1,0,0.3,0,0.4c0,0,0,0.1-0.1,0.1c0,0.1-0.1,0.1-0.2,0.1c-0.1,0-0.1,0-0.2,0
		c0,0-0.1,0-0.2,0c-0.1,0-0.3,0-0.3-0.1c-0.1,0-0.1-0.1-0.1-0.1c0,0,0-0.1,0-0.3c0.1-0.6,0.1-1.5,0.2-2.7c0.1-0.5,0.1-1.6,0.3-3.2
		c0,0-0.1,0-0.2-0.1c-0.1-0.1-0.2-0.2-0.2-0.3c0,0,0-0.2,0.1-0.3c0.1-0.3,0.2-0.5,0.3-0.7c0.1-0.1,0.2-0.2,0.3-0.2
		C29.9,4,30.3,4,30.8,4z M32.1,6.7c0-0.1,0-0.2,0-0.5c0-0.1,0-0.1-0.1-0.2S32,6,31.9,5.9c-0.1,0-0.3,0-0.5-0.1c0,0-0.1,0-0.1,0
		c-0.1,0-0.1,0-0.1,0c-0.3,0-0.4,0-0.5,0.1c0,0.1,0,0.3-0.1,0.6c0,0.1,0,0.2,0,0.4c0,0.1,0,0.3,0,0.6c0,0.1,0,0.1,0,0.2
		c0,0.1,0.1,0.1,0.1,0.1s0.1,0,0.2,0c0.5,0,0.8,0,1-0.1c0.2-0.1,0.2-0.3,0.3-0.5C32.1,7,32.1,6.9,32.1,6.7z"/>
	<path class="st0" d="M35.7,7.8c0.1,0,0.1,0,0.1,0c0,0,0.1,0,0.1,0c0,0,0.1,0.1,0.1,0.1c0,0,0,0.1,0,0.1c0,0.1,0,0.3-0.1,0.4L36,8.8
		c-0.1,0.2-0.2,0.5-0.3,0.9c-0.2,0.4-0.3,0.9-0.5,1.5c0,0.1-0.1,0.2-0.1,0.4c-0.1,0.2-0.1,0.3-0.1,0.4c-0.1,0.4-0.2,0.6-0.2,0.6
		c0,0.1-0.1,0.1-0.2,0.1c-0.1,0-0.4,0-0.7-0.1c-0.2,0-0.3-0.1-0.3-0.1c-0.1,0-0.1,0-0.1,0s0,0-0.1-0.1c0-0.1,0-0.1,0-0.2
		c0-0.1,0-0.1,0-0.2c0,0,0,0,0-0.1c0.1-0.2,0.2-0.8,0.5-1.7c0.2-0.8,0.4-1.3,0.5-1.6c0.1-0.2,0.1-0.3,0.1-0.4
		c0.1-0.1,0.1-0.2,0.2-0.2C35.1,7.7,35.4,7.8,35.7,7.8z M36.4,5.5c0.1,0,0.1,0,0.1,0c0,0,0.1,0,0.1,0c0,0,0.1,0.1,0.1,0.1
		c0,0,0,0.1,0,0.1c0,0,0,0.1,0,0.2c0,0.1,0,0.2-0.1,0.3c0,0.2-0.1,0.3-0.1,0.4c0,0.1,0,0.1-0.1,0.2C36.5,7,36.5,7,36.4,7
		c-0.1,0-0.3,0-0.7-0.1c-0.2,0-0.3-0.1-0.3-0.1c-0.1,0-0.1,0-0.1,0c0,0,0,0-0.1-0.1c0-0.1,0-0.1,0-0.2c0.1-0.3,0.2-0.5,0.2-0.6
		c0-0.1,0-0.1,0.1-0.2c0.1-0.1,0.1-0.2,0.2-0.2C35.8,5.5,36.1,5.5,36.4,5.5z"/>
	<path class="st0" d="M39.9,6.4c0.5,0.1,1,0.2,1.6,0.5c0.1,0,0.2,0.1,0.2,0.1c0.2,0.1,0.3,0.2,0.3,0.2c0,0.1-0.1,0.5-0.4,1
		c-0.1,0.3-0.2,0.5-0.3,0.6C41.3,9,41.1,9.1,41,9c-0.1,0-0.2-0.1-0.2-0.1c-0.1-0.1-0.1-0.1-0.1-0.2c0,0,0.1-0.1,0.1-0.3
		c0.1-0.1,0.1-0.3,0.1-0.3C41,8,41,8,41,8c0,0,0,0,0,0c-0.1,0-0.2-0.1-0.2-0.1c-0.1,0-0.1-0.1-0.2-0.1c0,0-0.1,0-0.1,0.1
		c-0.1,0.1-0.3,0.6-0.8,1.5c-0.5,0.9-0.9,1.8-1.3,2.7c-0.1,0.2-0.3,0.6-0.5,1c0,0.1-0.1,0.2-0.1,0.3c0,0,0,0.1,0.1,0.1
		c0.1,0.1,0.3,0.1,0.5,0.2c0.2,0.1,0.4,0.2,0.5,0.3c0,0,0.1,0,0.1,0.1c0,0,0,0.1,0,0.1c0,0,0,0.1,0,0.1c0,0.1-0.1,0.2-0.2,0.3
		c-0.1,0.2-0.3,0.3-0.3,0.3c0,0-0.1,0-0.1,0c0,0-0.1,0-0.1,0c-0.2-0.1-0.5-0.2-1.1-0.5c-0.1,0-0.2-0.1-0.3-0.1
		c-0.6-0.3-0.9-0.5-1-0.6c-0.1-0.1-0.1-0.2-0.1-0.4c0-0.1,0.1-0.4,0.3-0.8c0.2-0.5,0.6-1.3,1.2-2.5c0.2-0.4,0.4-0.9,0.6-1.2
		c0.4-0.9,0.7-1.4,0.9-1.8c0.2-0.3,0.4-0.4,0.6-0.5C39.4,6.4,39.6,6.4,39.9,6.4z"/>
	<path class="st0" d="M47.1,10.5c0.2,0,0.3,0,0.4,0.1c0,0,0,0,0.1,0.1c0.1,0.1,0.1,0.2,0.1,0.3c0,0.1-0.2,0.3-0.5,0.7
		c-0.1,0.2-0.3,0.3-0.4,0.4c-0.1,0.1-0.2,0.2-0.4,0.2c-0.1,0-0.2,0-0.5,0.1c-1.2,0.2-1.9,0.3-2,0.4c-0.1,0.1,0,0.4,0.1,1.2
		c0.1,0.8,0.2,1.4,0.2,1.8c0,0.1,0,0.3,0,0.5c0,0.2,0,0.3-0.1,0.3c0,0,0,0,0,0c-0.4,0.3-0.7,0.5-0.9,0.6c-0.2,0.1-0.4,0.2-0.5,0.2
		c-0.1,0-0.1,0-0.2-0.1c-0.1,0-0.1-0.1-0.1-0.1c0,0,0,0-0.1,0c0-0.1-0.1-0.2-0.1-0.4c-0.1-0.2-0.1-0.6-0.2-1.1
		c-0.1-1.2-0.2-1.9-0.3-2.2c0,0,0,0-0.1,0c0,0-0.1,0-0.1,0c-0.2,0.2-0.4,0.4-0.5,0.5c-0.1,0.1-0.3,0.3-0.5,0.5
		c-0.1,0.1-0.2,0.2-0.4,0.5c-0.2,0.3-0.4,0.4-0.4,0.5c-0.1,0-0.2,0.1-0.3,0c-0.1,0-0.2-0.1-0.2-0.1c0,0-0.1-0.1-0.1-0.1
		c-0.1-0.1-0.1-0.1-0.1-0.2c0-0.1,0-0.1,0.1-0.2c0,0,0,0,0,0c0.5-0.5,1.1-1.2,2-2.1c0.8-0.9,1.6-1.7,2.1-2.3
		c0.6-0.6,1.1-1.1,1.4-1.4c0.1-0.1,0.2-0.1,0.2-0.1C44.9,8.9,45,9,45,9c0.2,0.3,0.2,0.5,0.1,0.7c-0.1,0.1-0.2,0.3-0.4,0.4
		c-0.1,0.2-0.3,0.4-0.6,0.7c0,0,0.5,0,1.4-0.2c0.2,0,0.4-0.1,0.6-0.1c0.2,0,0.4-0.1,0.6-0.1C46.9,10.5,47,10.5,47.1,10.5z"/>
	<path class="st0" d="M9.7,31.4c-0.1,0.1-0.2,0.1-0.3,0.2c-0.1,0.1-0.3,0.2-0.4,0.2c-0.3,0.2-0.5,0.2-0.6,0.2c-0.1,0-0.2,0-0.2,0
		c0,0-0.1,0-0.1-0.1c-0.2-0.2-0.5-0.6-0.9-1.1c0,0-0.2,0.1-0.6,0.4c-0.4,0.2-1,0.6-1.8,1.1c-0.9,0.6-1.5,0.9-1.9,1.1
		c-0.1,0.1-0.2,0-0.4-0.2c0,0,0,0,0-0.1c-0.2-0.3-0.2-0.4,0-0.5c0.3-0.2,0.9-0.6,1.9-1.2c1.5-0.9,2.3-1.4,2.3-1.5
		c-0.3-0.6-0.6-1-0.7-1.3c0-0.1,0-0.2,0.1-0.3c0.3-0.2,0.5-0.3,0.8-0.4C7,28,7.2,28,7.4,27.9c0,0,0.1,0,0.1,0c0,0,0.1,0.1,0.1,0.1
		c0.1,0.1,0.2,0.2,0.3,0.4s0.4,0.5,0.7,1c0.3,0.4,0.5,0.7,0.7,1c0.2,0.3,0.3,0.4,0.4,0.5c0,0,0,0.1,0,0.1c0.1,0.1,0.1,0.2,0.1,0.2
		C9.8,31.3,9.8,31.3,9.7,31.4z"/>
	<path class="st0" d="M12.9,35.2c0.1-0.1,0.3,0,0.4,0.1c0,0,0,0,0,0.1c0.2,0.2,0.2,0.3,0.1,0.5c-0.2,0.2-0.9,1-2.2,2.3
		c-1.3,1.3-2.1,2.1-2.5,2.5c-0.2,0.1-0.3,0.2-0.3,0.2c-0.1,0-0.2-0.1-0.4-0.2c-0.2-0.2-0.6-0.6-1.3-1.3c-0.1-0.1-0.3-0.3-0.4-0.5
		c-0.2-0.3-0.6-0.7-1.1-1.2c-0.1-0.1-0.2-0.2-0.2-0.4c0-0.1,0.1-0.3,0.3-0.5c0.3-0.3,0.9-0.8,1.6-1.6c0.7-0.7,1.6-1.6,2.8-2.6
		c0.1-0.1,0.1-0.1,0.2-0.2c0.1-0.1,0.2-0.2,0.3-0.1c0.1,0,0.2,0.1,0.3,0.1c0.1,0.1,0.2,0.2,0.2,0.3c0,0.1,0,0.2-0.1,0.4
		c-1.2,1.3-2.2,2.4-2.9,3.2c-0.1,0.2-0.2,0.3-0.2,0.4c0,0.1,0.1,0.2,0.2,0.4c0.4,0.4,0.7,0.7,0.8,0.8c0.1,0.1,0.2,0.2,0.4,0.3
		c0.2,0,0.4,0,0.5-0.1c0.1-0.1,0.3-0.2,0.3-0.3c0.2-0.2,0.6-0.5,1.1-1C12.1,35.8,12.7,35.3,12.9,35.2z"/>
	<path class="st0" d="M16.1,36.8c0.4,0.1,0.7,0.2,1.1,0.3c0.3,0.1,0.4,0.2,0.5,0.3c0,0.1,0,0.2,0,0.3c0,0.2-0.2,0.5-0.5,1.2
		c-0.2,0.4-0.3,0.7-0.3,0.8s-0.2,0.3-0.2,0.5c-0.1,0.2-0.2,0.2-0.2,0.3c-0.1,0-0.1,0-0.2,0c-0.1,0-0.2,0-0.3,0
		c-0.3-0.1-0.5-0.1-0.6,0c0,0,0,0,0,0c0,0.1,0,0.3,0.1,0.6c0.7,1.8,1.1,2.8,1,3.1c0,0,0,0.1,0,0.1c-0.1,0.2-0.3,0.2-0.4,0.2
		c-0.1,0-0.3-0.5-0.6-1.5c-0.5-1.3-0.8-2-0.9-2.1c0,0-0.2,0.3-0.4,0.9c0,0.1-0.1,0.3-0.2,0.6c0,0.1-0.1,0.2-0.1,0.4
		c-0.1,0.2-0.1,0.3-0.1,0.3c-0.1,0.3-0.3,0.6-0.4,0.7c-0.1,0.1-0.2,0.2-0.3,0.2c-0.1,0-0.3,0-0.6,0c0,0-0.1,0-0.1,0
		c-0.3,0-0.4,0-0.5,0c0,0-0.1-0.1-0.2-0.2c-0.1-0.1-0.1-0.2-0.1-0.3c0.1-0.3,0.3-0.8,0.6-1.6s0.6-1.5,0.9-2.3
		c0.1-0.2,0.2-0.5,0.4-0.9c0.5-1.3,0.8-2,0.9-2c0.1-0.1,0.4-0.1,0.8-0.1C15.4,36.6,15.8,36.7,16.1,36.8z M16.9,37.9
		c0-0.1-0.1-0.2-0.3-0.2c0,0-0.1,0-0.1-0.1c-0.1-0.1-0.3-0.1-0.5-0.1c-0.2,0-0.3,0-0.3,0c0,0-0.2,0.4-0.5,1
		c-0.1,0.2-0.2,0.4-0.3,0.8c0,0.1,0,0.1,0,0.2c0,0,0,0.1,0.1,0.1c0.2,0.1,0.4,0.1,0.7,0.2c0.3,0,0.4,0,0.5,0
		c0.1-0.1,0.3-0.4,0.4-0.8C16.9,38.2,17,37.9,16.9,37.9z"/>
	<path class="st0" d="M20.4,37.9c0.8-0.1,1.2-0.1,1.4-0.1c0.3,0,0.5,0.1,0.6,0.2c0.1,0.1,0.1,0.2,0.2,0.3c0,0.2,0.1,0.5,0.1,1
		c0,0.5,0,0.9,0,1.2c0,0.1,0,0.2,0,0.2c0,0.1-0.1,0.2-0.3,0.3c-0.2,0.1-0.5,0.1-1,0.2c-0.6,0.1-0.9,0.1-1,0.2
		c-0.1,0-0.1,0.6-0.1,1.8c0,1,0,1.5,0.1,1.6c0,0,0.2,0.1,0.3,0.1c0.2,0,0.4,0,0.7,0c0.3,0,0.4,0,0.5,0c0.1,0,0.1,0,0.2-0.1
		c0,0,0-0.1,0-0.2c0-0.1,0-0.2,0-0.3c0-0.3,0-0.5,0.1-0.6c0.1-0.1,0.2-0.1,0.3-0.1c0.2,0,0.3,0.1,0.3,0.2c0.1,0.1,0.1,0.4,0.2,0.8
		c0,0.3,0,0.5,0,0.5c0,0.5-0.1,0.7-0.2,0.8c-0.1,0.1-0.7,0.1-1.7,0.1c-0.1,0-0.2,0-0.4,0c-0.2,0-0.3,0-0.3,0c-0.5,0-0.9,0-1.1-0.1
		c-0.2-0.1-0.3-0.2-0.4-0.4c-0.1-0.2-0.2-0.4-0.2-0.6c0-0.3-0.1-0.7,0-1.4c0-0.2,0-0.8,0-2c0-0.6,0-1.6,0.1-2.9c0-0.1,0-0.1,0.1-0.2
		c0.1-0.1,0.2-0.2,0.3-0.3C19.4,38,19.8,38,20.4,37.9z M22,39.3c0,0,0-0.1,0-0.1c0,0,0-0.1,0-0.1c0,0,0-0.1,0-0.1
		c0-0.1-0.1-0.1-0.2-0.2c-0.1,0-0.2,0-0.4,0c-0.4,0-0.7,0-0.8,0.1s-0.1,0.2-0.1,0.6c0,0.3,0,0.6,0.1,0.7c0,0.1,0,0.1,0,0.1
		c0,0,0.1,0.1,0.2,0.1c0.1,0,0.1,0,0.2,0c0.1,0,0.1,0,0.2,0c0.4,0,0.6-0.1,0.7-0.2C21.9,40,21.9,39.7,22,39.3z"/>
</g>
</svg>
