<?xml version="1.0" encoding="utf-8"?>
<!-- Generator: Adobe Illustrator 24.3.0, SVG Export Plug-In . SVG Version: 6.00 Build 0)  -->
<svg version="1.1" id="레이어_1" xmlns="http://www.w3.org/2000/svg" xmlns:xlink="http://www.w3.org/1999/xlink" x="0px"
	 y="0px" viewBox="0 0 50 50" style="enable-background:new 0 0 50 50;" xml:space="preserve">
<style type="text/css">
	.st0{fill:#FFFFFF;stroke:#FFFFFF;stroke-width:2;stroke-miterlimit:10;}
	.st1{fill:#FFFFFF;stroke:#FFFFFF;stroke-width:0.6969;stroke-miterlimit:10;}
	.st2{fill:#FFFFFF;}
	.st3{fill:#AA3A23;stroke:#FFFFFF;stroke-width:0.536;stroke-miterlimit:10;}
	.st4{fill:#00224A;stroke:#FFFFFF;stroke-width:0.536;stroke-miterlimit:10;}
	.st5{fill:#221714;}
</style>
<g>
	<g>
		<g>
			<g>
				<g>
					<path class="st0" d="M25.49,2.74c0.13-0.02,0.53-0.06,1.21-0.12c0.06,0,0.14-0.01,0.24-0.01c0.09-0.01,0.15-0.02,0.19-0.02
						c0.28-0.02,0.49,0.02,0.61,0.13c0.05,0.03,0.09,0.07,0.14,0.11c0.05,0.04,0.07,0.1,0.08,0.19c0.03,0.44,0.07,1.1,0.12,1.97
						c0.09,1.41,0.11,2.21,0.06,2.41c-0.09,0.35-0.38,0.53-0.86,0.56c-0.17,0.01-0.45,0.03-0.85,0.05c-0.4,0.02-0.61,0.05-0.64,0.08
						c-0.02,0.03,0,0.51,0.08,1.43c0.02,0.27,0.03,0.47,0.04,0.61c0.01,0.14,0.02,0.27,0.02,0.37c0.01,0.04,0,0.09-0.04,0.14
						c-0.03,0.06-0.07,0.1-0.14,0.11c-0.05,0.01-0.11,0.02-0.18,0.02c-0.05,0-0.11,0-0.17,0c-0.15,0.01-0.25,0-0.31-0.02
						c-0.07-0.02-0.12-0.06-0.15-0.1c-0.03-0.04-0.06-0.13-0.06-0.27c-0.04-0.6-0.11-1.49-0.19-2.69c-0.03-0.53-0.1-1.57-0.21-3.14
						c-0.04,0-0.12-0.01-0.23-0.03c-0.12-0.1-0.19-0.2-0.19-0.28c0-0.04,0.01-0.15,0.03-0.35c0.04-0.3,0.09-0.53,0.15-0.71
						c0.06-0.13,0.15-0.22,0.29-0.28C24.65,2.86,24.98,2.8,25.49,2.74z M27.13,5.08c-0.01-0.07-0.04-0.22-0.07-0.44
						c-0.01-0.06-0.04-0.12-0.08-0.16c-0.03-0.03-0.1-0.05-0.2-0.05c-0.11,0.01-0.27,0.01-0.47,0.02c-0.04,0-0.09,0-0.14,0
						c-0.06,0-0.11,0.01-0.13,0.01c-0.28,0.02-0.43,0.06-0.44,0.14c-0.01,0.06,0,0.25,0.02,0.59c0.01,0.09,0.01,0.21,0.02,0.37
						c0.01,0.09,0.02,0.29,0.05,0.57c0,0.07,0.02,0.13,0.05,0.18c0.04,0.06,0.08,0.08,0.13,0.08c0.05-0.01,0.12-0.02,0.22-0.02
						c0.47-0.04,0.78-0.11,0.92-0.2c0.14-0.09,0.2-0.28,0.19-0.57C27.18,5.45,27.16,5.28,27.13,5.08z"/>
					<path class="st0" d="M30.81,5.65c0.06,0.01,0.1,0.01,0.14,0.02c0.04,0.01,0.08,0.01,0.12,0.02c0.05,0.02,0.08,0.04,0.11,0.06
						c0.02,0.02,0.03,0.07,0.04,0.13c0.01,0.13,0.01,0.27,0,0.43l-0.03,0.24c-0.03,0.2-0.09,0.5-0.16,0.89
						c-0.09,0.43-0.18,0.93-0.25,1.48C30.76,9,30.74,9.11,30.72,9.26c-0.03,0.15-0.04,0.27-0.05,0.35
						c-0.04,0.35-0.06,0.56-0.09,0.61c-0.04,0.07-0.08,0.11-0.13,0.11c-0.13,0.03-0.35,0.03-0.64,0.01
						c-0.16-0.01-0.27-0.03-0.34-0.04c-0.06,0-0.11,0-0.13-0.01c-0.02-0.01-0.05-0.04-0.08-0.09c-0.02-0.05-0.03-0.11-0.02-0.18
						c0.01-0.07,0.02-0.14,0.02-0.19c0-0.01,0.01-0.04,0.01-0.09c0.03-0.21,0.12-0.79,0.27-1.75c0.13-0.77,0.22-1.31,0.28-1.63
						c0.03-0.16,0.06-0.3,0.08-0.39c0.05-0.15,0.1-0.23,0.17-0.26C30.2,5.69,30.45,5.66,30.81,5.65z M31.16,3.37
						c0.06,0.01,0.1,0.01,0.14,0.02c0.04,0.01,0.08,0.01,0.12,0.02c0.05,0.02,0.08,0.04,0.11,0.06c0.02,0.02,0.03,0.07,0.04,0.13
						c0,0.04,0,0.12,0,0.22c-0.01,0.1-0.02,0.19-0.03,0.28c-0.01,0.2-0.03,0.34-0.04,0.44c-0.01,0.09-0.02,0.14-0.03,0.17
						c-0.04,0.07-0.08,0.1-0.14,0.1c-0.13,0.03-0.34,0.03-0.64,0.01c-0.15-0.01-0.27-0.02-0.34-0.02c-0.07-0.01-0.11-0.02-0.13-0.02
						c-0.03,0-0.05-0.03-0.08-0.09c-0.03-0.05-0.03-0.1-0.03-0.17c0.05-0.33,0.08-0.54,0.1-0.62c0.01-0.08,0.02-0.14,0.04-0.19
						c0.05-0.15,0.1-0.23,0.17-0.26C30.55,3.4,30.8,3.38,31.16,3.37z"/>
					<path class="st0" d="M34.61,3.75c0.45-0.01,1.01,0.08,1.66,0.26c0.08,0.02,0.16,0.04,0.22,0.06c0.21,0.07,0.32,0.12,0.33,0.17
						c0.03,0.13-0.04,0.48-0.2,1.05c-0.09,0.33-0.16,0.53-0.22,0.61c-0.1,0.14-0.21,0.2-0.32,0.17C36,6.06,35.93,6.03,35.86,5.97
						c-0.07-0.05-0.11-0.11-0.12-0.17c0-0.05,0.02-0.14,0.07-0.28c0.05-0.14,0.07-0.26,0.08-0.35c0.01-0.05,0-0.08-0.02-0.1
						c-0.02-0.01-0.03-0.02-0.05-0.03c-0.09-0.03-0.17-0.05-0.25-0.07c-0.08-0.02-0.14-0.03-0.19-0.03
						c-0.04,0.01-0.07,0.04-0.09,0.07c-0.05,0.1-0.24,0.63-0.55,1.59c-0.32,0.95-0.61,1.9-0.87,2.84c-0.07,0.24-0.17,0.59-0.3,1.07
						c-0.03,0.13-0.04,0.22-0.02,0.26c0.01,0.04,0.05,0.07,0.11,0.09c0.12,0.04,0.29,0.09,0.52,0.15c0.23,0.07,0.4,0.13,0.53,0.17
						c0.03,0,0.06,0.02,0.08,0.05c0.02,0.02,0.03,0.05,0.03,0.09c0,0.03,0,0.07-0.02,0.12c-0.02,0.07-0.07,0.16-0.13,0.28
						c-0.12,0.19-0.21,0.3-0.28,0.33c-0.03,0.01-0.07,0.02-0.11,0.01c-0.05,0-0.09,0-0.12-0.01c-0.17-0.05-0.53-0.15-1.09-0.33
						c-0.1-0.03-0.19-0.06-0.27-0.09c-0.62-0.2-0.96-0.33-1-0.39c-0.09-0.09-0.13-0.2-0.12-0.34c0-0.14,0.07-0.42,0.19-0.86
						c0.12-0.49,0.37-1.37,0.76-2.63c0.14-0.46,0.27-0.88,0.39-1.25c0.28-0.88,0.5-1.51,0.64-1.87c0.14-0.3,0.29-0.47,0.47-0.52
						C34.16,3.76,34.32,3.75,34.61,3.75z"/>
					<path class="st0" d="M42.13,6.64c0.16-0.03,0.29-0.02,0.41,0.05c0.03,0.02,0.05,0.03,0.07,0.04c0.08,0.07,0.13,0.17,0.13,0.29
						c0,0.11-0.12,0.35-0.36,0.73c-0.12,0.17-0.22,0.32-0.32,0.44c-0.09,0.12-0.2,0.19-0.32,0.23c-0.07,0.02-0.22,0.07-0.45,0.14
						c-1.17,0.36-1.79,0.59-1.87,0.69c-0.05,0.06,0.03,0.44,0.23,1.14c0.22,0.73,0.38,1.29,0.48,1.69c0.03,0.11,0.06,0.25,0.1,0.44
						c0.03,0.16,0.03,0.27-0.01,0.34c-0.01,0.01-0.02,0.02-0.02,0.02c-0.3,0.32-0.56,0.55-0.76,0.71c-0.2,0.15-0.35,0.24-0.45,0.27
						c-0.07,0.01-0.14,0-0.21-0.04c-0.08-0.03-0.12-0.05-0.13-0.06c-0.01-0.01-0.03-0.02-0.06-0.03c-0.05-0.04-0.11-0.16-0.18-0.34
						c-0.08-0.18-0.18-0.53-0.31-1.04c-0.3-1.13-0.5-1.82-0.61-2.08c-0.02,0-0.04-0.01-0.07-0.02c-0.02,0-0.05,0.01-0.07,0.03
						c-0.16,0.22-0.29,0.41-0.4,0.57c-0.1,0.17-0.23,0.36-0.38,0.57c-0.06,0.09-0.18,0.27-0.35,0.55c-0.18,0.27-0.3,0.45-0.36,0.52
						c-0.07,0.06-0.17,0.08-0.31,0.04c-0.09-0.02-0.17-0.05-0.25-0.09c-0.04-0.03-0.08-0.05-0.12-0.08
						c-0.06-0.05-0.09-0.11-0.11-0.16c-0.01-0.05,0.02-0.12,0.07-0.21c0.01-0.01,0.01-0.02,0.02-0.03c0.37-0.55,0.9-1.33,1.59-2.35
						c0.69-1.03,1.27-1.87,1.74-2.52c0.51-0.72,0.88-1.23,1.11-1.55c0.07-0.07,0.14-0.11,0.2-0.1c0.03,0.01,0.07,0.03,0.12,0.07
						c0.23,0.26,0.31,0.49,0.24,0.69C40.09,6.34,40,6.49,39.88,6.66c-0.11,0.17-0.28,0.42-0.51,0.76c0.04,0.03,0.48-0.09,1.31-0.35
						c0.18-0.05,0.38-0.11,0.6-0.18c0.23-0.07,0.42-0.12,0.56-0.16C42,6.69,42.09,6.66,42.13,6.64z"/>
				</g>
			</g>
			<path class="st0" d="M9.6,34.82C9.52,34.91,9.43,35,9.33,35.09c-0.1,0.09-0.22,0.18-0.36,0.28c-0.27,0.19-0.46,0.3-0.55,0.31
				c-0.09,0.04-0.16,0.04-0.2,0.02c-0.04-0.02-0.07-0.04-0.08-0.04c-0.23-0.21-0.57-0.52-1-0.94c-0.02,0-0.22,0.15-0.57,0.45
				c-0.36,0.3-0.89,0.74-1.6,1.32c-0.78,0.66-1.34,1.12-1.66,1.37c-0.1,0.08-0.23,0.02-0.39-0.17c-0.01-0.01-0.03-0.03-0.04-0.05
				c-0.19-0.23-0.22-0.39-0.11-0.48c0.27-0.24,0.82-0.71,1.65-1.41c1.33-1.13,2.01-1.72,2.03-1.78c-0.43-0.53-0.71-0.91-0.86-1.14
				c-0.04-0.13-0.03-0.23,0.03-0.29c0.23-0.18,0.46-0.34,0.69-0.46c0.22-0.13,0.41-0.22,0.55-0.26c0.03,0,0.07,0,0.11,0.01
				c0.03,0.01,0.07,0.03,0.12,0.06c0.09,0.06,0.22,0.17,0.38,0.34c0.17,0.17,0.45,0.46,0.82,0.88c0.33,0.35,0.6,0.64,0.81,0.86
				c0.21,0.22,0.35,0.38,0.44,0.47c0.02,0.03,0.05,0.05,0.06,0.07c0.08,0.09,0.11,0.15,0.1,0.17C9.69,34.7,9.66,34.75,9.6,34.82z"/>
			<path class="st0" d="M13.22,38.03c0.12-0.06,0.25-0.03,0.41,0.09c0.02,0.02,0.04,0.03,0.05,0.05c0.18,0.16,0.22,0.31,0.14,0.46
				c-0.13,0.26-0.71,1.09-1.75,2.5c-1.03,1.41-1.72,2.33-2.07,2.77c-0.12,0.15-0.22,0.24-0.3,0.26c-0.08,0.02-0.2-0.02-0.37-0.12
				c-0.23-0.14-0.7-0.49-1.42-1.07c-0.14-0.12-0.3-0.24-0.47-0.38c-0.27-0.22-0.68-0.54-1.22-0.98C6.09,41.51,6.02,41.4,6,41.29
				c-0.02-0.11,0.04-0.27,0.19-0.48c0.29-0.35,0.74-0.94,1.35-1.77c0.6-0.79,1.36-1.76,2.28-2.91c0.05-0.06,0.09-0.12,0.14-0.18
				c0.1-0.13,0.2-0.19,0.27-0.19c0.08,0.01,0.17,0.04,0.28,0.1c0.13,0.07,0.22,0.14,0.28,0.22c0.06,0.08,0.04,0.21-0.04,0.37
				c-1,1.48-1.77,2.64-2.31,3.48c-0.08,0.17-0.12,0.29-0.11,0.37c0.01,0.08,0.1,0.18,0.26,0.31c0.45,0.37,0.74,0.6,0.86,0.71
				c0.12,0.11,0.27,0.18,0.44,0.22c0.19,0.02,0.35-0.03,0.48-0.16c0.13-0.13,0.22-0.23,0.27-0.3c0.16-0.2,0.47-0.59,0.95-1.18
				C12.51,38.75,13.06,38.12,13.22,38.03z"/>
			<path class="st0" d="M16.52,39.08c0.37,0.04,0.72,0.1,1.06,0.18c0.27,0.07,0.45,0.13,0.52,0.19c0.05,0.06,0.07,0.16,0.05,0.31
				c-0.02,0.15-0.11,0.55-0.27,1.19c-0.09,0.39-0.17,0.68-0.21,0.85c-0.05,0.17-0.1,0.34-0.16,0.5c-0.05,0.16-0.11,0.26-0.18,0.29
				c-0.07,0.04-0.14,0.06-0.21,0.07c-0.07,0.01-0.18,0.02-0.33,0.01c-0.33-0.01-0.52,0.01-0.58,0.05c-0.01,0.01-0.01,0.02-0.02,0.03
				c-0.02,0.07,0.06,0.24,0.22,0.52c0.96,1.62,1.43,2.57,1.42,2.84c0,0.03-0.01,0.07-0.02,0.13c-0.11,0.17-0.24,0.27-0.39,0.27
				c-0.06-0.01-0.33-0.48-0.79-1.4c-0.68-1.22-1.07-1.84-1.19-1.87c-0.02,0-0.1,0.31-0.25,0.93c-0.03,0.13-0.08,0.33-0.14,0.6
				c-0.02,0.09-0.05,0.21-0.09,0.37c-0.03,0.16-0.05,0.26-0.07,0.32c-0.09,0.36-0.17,0.61-0.25,0.76c-0.08,0.14-0.16,0.24-0.24,0.28
				c-0.08,0.04-0.26,0.07-0.53,0.1c-0.03,0.01-0.06,0.01-0.08,0.01c-0.26,0.03-0.43,0.04-0.48,0.03c-0.03-0.01-0.1-0.05-0.2-0.14
				c-0.11-0.08-0.15-0.16-0.14-0.25c0.04-0.28,0.15-0.82,0.32-1.61c0.17-0.79,0.35-1.58,0.54-2.36c0.05-0.21,0.13-0.53,0.23-0.95
				c0.32-1.32,0.51-2,0.59-2.06c0.09-0.07,0.35-0.14,0.77-0.18C15.83,39.06,16.2,39.05,16.52,39.08z M17.47,40
				c-0.06-0.07-0.15-0.14-0.28-0.2c-0.02-0.01-0.07-0.03-0.14-0.04c-0.14-0.03-0.3-0.05-0.47-0.06c-0.17-0.01-0.27,0-0.31,0.03
				c-0.02,0.03-0.12,0.37-0.31,1.03c-0.05,0.17-0.12,0.44-0.21,0.79c-0.02,0.08-0.03,0.13-0.01,0.18c0.02,0.03,0.05,0.06,0.09,0.07
				c0.21,0.05,0.45,0.07,0.73,0.06c0.27-0.01,0.44-0.04,0.5-0.09c0.09-0.09,0.19-0.38,0.31-0.86C17.49,40.38,17.52,40.08,17.47,40z"
				/>
			<path class="st0" d="M20.84,39.54c0.74-0.16,1.18-0.25,1.33-0.27c0.32-0.05,0.53-0.03,0.64,0.06c0.08,0.05,0.14,0.14,0.19,0.29
				c0.05,0.15,0.13,0.47,0.24,0.98c0.1,0.49,0.18,0.86,0.21,1.12c0.02,0.14,0.03,0.22,0.03,0.24c-0.01,0.14-0.09,0.25-0.23,0.33
				c-0.14,0.08-0.44,0.18-0.9,0.3c-0.56,0.14-0.87,0.25-0.91,0.32c-0.05,0.05,0.01,0.62,0.18,1.72c0.14,0.96,0.25,1.47,0.33,1.52
				c0.05,0.03,0.15,0.03,0.31,0.01c0.16-0.02,0.37-0.07,0.64-0.13c0.27-0.06,0.42-0.1,0.45-0.11c0.08-0.03,0.13-0.07,0.15-0.12
				c0.01-0.05,0.02-0.11,0.01-0.17c0-0.07-0.01-0.16-0.03-0.27c-0.04-0.27-0.04-0.46-0.01-0.57c0.04-0.1,0.13-0.16,0.28-0.18
				c0.16-0.02,0.29,0.02,0.36,0.14c0.08,0.11,0.17,0.36,0.26,0.74c0.05,0.28,0.09,0.45,0.1,0.52c0.07,0.44,0.03,0.72-0.1,0.83
				c-0.1,0.08-0.65,0.21-1.65,0.38c-0.1,0.02-0.23,0.04-0.38,0.07c-0.16,0.02-0.27,0.04-0.33,0.05c-0.5,0.07-0.84,0.1-1.03,0.08
				c-0.18-0.03-0.33-0.13-0.46-0.29c-0.12-0.16-0.21-0.35-0.28-0.58c-0.07-0.24-0.15-0.69-0.25-1.35c-0.03-0.19-0.12-0.82-0.26-1.88
				c-0.08-0.62-0.2-1.57-0.37-2.82c-0.01-0.06,0-0.13,0.05-0.22c0.05-0.1,0.14-0.2,0.28-0.3C19.91,39.81,20.3,39.67,20.84,39.54z
				 M22.55,40.7c0-0.05,0-0.1-0.01-0.14c0-0.04,0-0.08-0.01-0.11c0-0.01-0.01-0.05-0.02-0.14c-0.02-0.09-0.08-0.13-0.19-0.13
				c-0.09,0.01-0.22,0.03-0.4,0.06c-0.44,0.07-0.69,0.15-0.77,0.22c-0.08,0.08-0.1,0.26-0.05,0.56c0.05,0.32,0.1,0.54,0.16,0.68
				c0.02,0.05,0.04,0.09,0.07,0.12c0.02,0.03,0.07,0.04,0.15,0.03c0.04-0.01,0.1-0.02,0.16-0.03c0.06-0.02,0.13-0.04,0.21-0.06
				c0.34-0.09,0.56-0.19,0.64-0.31C22.57,41.32,22.59,41.07,22.55,40.7z"/>
			<circle class="st0" cx="25.73" cy="25.24" r="6.62"/>
			<path class="st0" d="M25.69,18.59c-3.78,0-6.85,3.07-6.85,6.85c0,3.78,3.07,6.85,6.85,6.85c3.78,0,6.85-3.07,6.85-6.85
				C32.54,21.66,29.47,18.59,25.69,18.59z M24.82,24.9c-1.25,1.21-2.92,1.52-3.72,0.69c-0.8-0.83-0.44-2.49,0.81-3.7
				c1.25-1.21,2.92-1.52,3.72-0.69C26.44,22.04,26.08,23.69,24.82,24.9z M29.65,29.44c-0.7,0.68-1.63,0.85-2.08,0.39
				c-0.45-0.47-0.24-1.39,0.46-2.07c0.7-0.68,1.63-0.85,2.08-0.38C30.56,27.84,30.35,28.76,29.65,29.44z"/>
			<path class="st0" d="M26.01,37.31h0.07c3.75-0.01,7.05-1.08,9.83-2.55l-7.16,6.95c-0.71,0.69-0.73,1.83-0.04,2.54
				c0.69,0.71,1.83,0.73,2.54,0.04l7.09-6.88l-2.62,7.09c-0.34,0.93,0.13,1.96,1.06,2.31c0.93,0.34,1.96-0.13,2.31-1.06l3.4-9.2
				v4.43c0,0.99,0.8,1.8,1.8,1.8c0.99,0,1.51-0.83,1.8-1.8c0,0,2.73-8.48,0-15.43s-11.13-11.2-16.93-11.95l-0.18-0.01
				c-0.68,0-1.23,0.55-1.23,1.23c0,0.56,0.37,1.03,0.88,1.18l0.06,0.02c4.07,1.16,7.04,4.91,7.04,9.35c0,5.33-4.29,9.66-9.61,9.72
				l-0.11,0c-0.62,0-1.13,0.5-1.13,1.12C24.88,36.81,25.39,37.31,26.01,37.31z"/>
			<path class="st0" d="M25.37,13.56H25.3c-3.75,0.01-7.05,1.08-9.83,2.55l7.16-6.95c0.71-0.69,0.73-1.83,0.04-2.54
				c-0.69-0.71-1.83-0.73-2.54-0.04l-7.09,6.88l2.62-7.09C16,5.45,15.53,4.41,14.6,4.07c-0.93-0.34-1.96,0.13-2.31,1.06l-3.4,9.2
				V9.9c0-0.99-0.8-1.8-1.8-1.8c-0.99,0-1.51,0.83-1.8,1.8c0,0-2.73,8.48,0,15.43s11.13,11.2,16.93,11.95l0.18,0.01
				c0.68,0,1.23-0.55,1.23-1.23c0-0.56-0.37-1.03-0.88-1.18l-0.06-0.02c-4.07-1.16-7.04-4.91-7.04-9.35c0-5.33,4.29-9.66,9.61-9.72
				l0.11,0c0.62,0,1.13-0.5,1.13-1.12C26.5,14.06,25.99,13.56,25.37,13.56z"/>
			<g>
				<g>
					<path class="st0" d="M25.6,2.81c0.13-0.02,0.53-0.06,1.21-0.12c0.06,0,0.14-0.01,0.24-0.01c0.09-0.01,0.15-0.02,0.19-0.02
						c0.28-0.02,0.49,0.02,0.61,0.13c0.05,0.03,0.09,0.07,0.14,0.11c0.05,0.04,0.07,0.1,0.08,0.19c0.03,0.44,0.07,1.1,0.12,1.97
						c0.09,1.41,0.11,2.21,0.06,2.41C28.16,7.81,27.87,8,27.38,8.03c-0.17,0.01-0.45,0.03-0.85,0.05c-0.4,0.02-0.61,0.05-0.64,0.08
						c-0.02,0.03,0,0.51,0.08,1.43C25.98,9.86,26,10.07,26,10.2c0.01,0.14,0.02,0.27,0.02,0.37c0.01,0.04,0,0.09-0.04,0.14
						c-0.03,0.06-0.07,0.1-0.14,0.11c-0.05,0.01-0.11,0.02-0.18,0.02c-0.05,0-0.11,0-0.17,0c-0.15,0.01-0.25,0-0.31-0.02
						c-0.07-0.02-0.12-0.06-0.15-0.1c-0.03-0.04-0.06-0.13-0.06-0.27c-0.04-0.6-0.11-1.49-0.19-2.69c-0.03-0.53-0.1-1.57-0.21-3.14
						c-0.04,0-0.12-0.01-0.23-0.03c-0.12-0.1-0.19-0.2-0.19-0.28c0-0.04,0.01-0.15,0.03-0.35c0.04-0.3,0.09-0.53,0.15-0.71
						c0.06-0.13,0.15-0.22,0.29-0.28C24.76,2.93,25.09,2.87,25.6,2.81z M27.24,5.15c-0.01-0.07-0.04-0.22-0.07-0.44
						c-0.01-0.06-0.04-0.12-0.08-0.16c-0.03-0.03-0.1-0.05-0.2-0.05c-0.11,0.01-0.27,0.01-0.47,0.02c-0.04,0-0.09,0-0.14,0
						c-0.06,0-0.11,0.01-0.13,0.01c-0.28,0.02-0.43,0.06-0.44,0.14c-0.01,0.06,0,0.25,0.02,0.59c0.01,0.09,0.01,0.21,0.02,0.37
						c0.01,0.09,0.02,0.29,0.05,0.57c0,0.07,0.02,0.13,0.05,0.18c0.04,0.06,0.08,0.08,0.13,0.08c0.05-0.01,0.12-0.02,0.22-0.02
						c0.47-0.04,0.78-0.11,0.92-0.2c0.14-0.09,0.2-0.28,0.19-0.57C27.29,5.52,27.27,5.35,27.24,5.15z"/>
					<path class="st0" d="M30.91,5.72c0.06,0.01,0.1,0.01,0.14,0.02c0.04,0.01,0.08,0.01,0.12,0.02c0.05,0.02,0.08,0.04,0.11,0.06
						c0.02,0.02,0.03,0.07,0.04,0.13c0.01,0.13,0.01,0.27,0,0.43l-0.03,0.24c-0.03,0.2-0.09,0.5-0.16,0.89
						c-0.09,0.43-0.18,0.93-0.25,1.48c-0.01,0.09-0.03,0.21-0.05,0.35c-0.03,0.15-0.04,0.27-0.05,0.35
						c-0.04,0.35-0.06,0.56-0.09,0.61c-0.04,0.07-0.08,0.11-0.13,0.11c-0.13,0.03-0.35,0.03-0.64,0.01
						c-0.16-0.01-0.27-0.03-0.34-0.04c-0.06,0-0.11,0-0.13-0.01c-0.02-0.01-0.05-0.04-0.08-0.09c-0.02-0.05-0.03-0.11-0.02-0.18
						c0.01-0.07,0.02-0.14,0.02-0.19c0-0.01,0.01-0.04,0.01-0.09c0.03-0.21,0.12-0.79,0.27-1.75c0.13-0.77,0.22-1.31,0.28-1.63
						c0.03-0.16,0.06-0.3,0.08-0.39c0.05-0.15,0.1-0.23,0.17-0.26C30.31,5.75,30.56,5.73,30.91,5.72z M31.26,3.44
						c0.06,0.01,0.1,0.01,0.14,0.02c0.04,0.01,0.08,0.01,0.12,0.02c0.05,0.02,0.08,0.04,0.11,0.06c0.02,0.02,0.03,0.07,0.04,0.13
						c0,0.04,0,0.12,0,0.22c-0.01,0.1-0.02,0.19-0.03,0.28c-0.01,0.2-0.03,0.34-0.04,0.44c-0.01,0.09-0.02,0.14-0.03,0.17
						c-0.04,0.07-0.08,0.1-0.14,0.1C31.3,4.9,31.09,4.9,30.79,4.88c-0.15-0.01-0.27-0.02-0.34-0.02c-0.07-0.01-0.11-0.02-0.13-0.02
						c-0.03,0-0.05-0.03-0.08-0.09c-0.03-0.05-0.03-0.1-0.03-0.17c0.05-0.33,0.08-0.54,0.1-0.62c0.01-0.08,0.02-0.14,0.04-0.19
						c0.05-0.15,0.1-0.23,0.17-0.26C30.66,3.47,30.91,3.44,31.26,3.44z"/>
					<path class="st0" d="M34.72,3.82c0.45-0.01,1.01,0.08,1.66,0.26c0.08,0.02,0.16,0.04,0.22,0.06c0.21,0.07,0.32,0.12,0.33,0.17
						c0.03,0.13-0.04,0.48-0.2,1.05c-0.09,0.33-0.16,0.53-0.22,0.61c-0.1,0.14-0.21,0.2-0.32,0.17c-0.09-0.02-0.16-0.06-0.23-0.11
						c-0.07-0.05-0.11-0.11-0.12-0.17c0-0.05,0.02-0.14,0.07-0.28c0.05-0.14,0.07-0.26,0.08-0.35c0.01-0.05,0-0.08-0.02-0.1
						c-0.02-0.01-0.03-0.02-0.05-0.03c-0.09-0.03-0.17-0.05-0.25-0.07c-0.08-0.02-0.14-0.03-0.19-0.03
						c-0.04,0.01-0.07,0.04-0.09,0.07c-0.05,0.1-0.24,0.63-0.55,1.59c-0.32,0.95-0.61,1.9-0.87,2.84c-0.07,0.24-0.17,0.59-0.3,1.07
						c-0.03,0.13-0.04,0.22-0.02,0.26c0.01,0.04,0.05,0.07,0.11,0.09c0.12,0.04,0.29,0.09,0.52,0.15c0.23,0.07,0.4,0.13,0.53,0.17
						c0.03,0,0.06,0.02,0.08,0.05c0.02,0.02,0.03,0.05,0.03,0.09c0,0.03,0,0.07-0.02,0.12c-0.02,0.07-0.07,0.16-0.13,0.28
						c-0.12,0.19-0.21,0.3-0.28,0.33c-0.03,0.01-0.07,0.02-0.11,0.01c-0.05,0-0.09,0-0.12-0.01c-0.17-0.05-0.53-0.15-1.09-0.33
						c-0.1-0.03-0.19-0.06-0.27-0.09c-0.62-0.2-0.96-0.33-1-0.39c-0.09-0.09-0.13-0.2-0.12-0.34c0-0.14,0.07-0.42,0.19-0.86
						c0.12-0.49,0.37-1.37,0.76-2.63c0.14-0.46,0.27-0.88,0.39-1.25c0.28-0.88,0.5-1.51,0.64-1.87c0.14-0.3,0.29-0.47,0.47-0.52
						C34.27,3.83,34.43,3.82,34.72,3.82z"/>
					<path class="st0" d="M42.24,6.71c0.16-0.03,0.29-0.02,0.41,0.05c0.03,0.02,0.05,0.03,0.07,0.04c0.08,0.07,0.13,0.17,0.13,0.29
						c0,0.11-0.12,0.35-0.36,0.73C42.37,8,42.27,8.15,42.17,8.27c-0.09,0.12-0.2,0.19-0.32,0.23c-0.07,0.02-0.22,0.07-0.45,0.14
						C40.23,9,39.61,9.23,39.54,9.33c-0.05,0.06,0.03,0.44,0.23,1.14c0.22,0.73,0.38,1.29,0.48,1.69c0.03,0.11,0.06,0.25,0.1,0.44
						c0.03,0.16,0.03,0.27-0.01,0.34c-0.01,0.01-0.02,0.02-0.02,0.02c-0.3,0.32-0.56,0.55-0.76,0.71c-0.2,0.15-0.35,0.24-0.45,0.27
						c-0.07,0.01-0.14,0-0.21-0.04c-0.08-0.03-0.12-0.05-0.13-0.06c-0.01-0.01-0.03-0.02-0.06-0.03c-0.05-0.04-0.11-0.16-0.18-0.34
						c-0.08-0.18-0.18-0.53-0.31-1.04c-0.3-1.13-0.5-1.82-0.61-2.08c-0.02,0-0.04-0.01-0.07-0.02c-0.02,0-0.05,0.01-0.07,0.03
						c-0.16,0.22-0.29,0.41-0.4,0.57c-0.1,0.17-0.23,0.36-0.38,0.57c-0.06,0.09-0.18,0.27-0.35,0.55c-0.18,0.27-0.3,0.45-0.36,0.52
						c-0.07,0.06-0.17,0.08-0.31,0.04c-0.09-0.02-0.17-0.05-0.25-0.09c-0.04-0.03-0.08-0.05-0.12-0.08
						c-0.06-0.05-0.09-0.11-0.11-0.16c-0.01-0.05,0.02-0.12,0.07-0.21c0.01-0.01,0.01-0.02,0.02-0.03c0.37-0.55,0.9-1.33,1.59-2.35
						c0.69-1.03,1.27-1.87,1.74-2.52c0.51-0.72,0.88-1.23,1.11-1.55c0.07-0.07,0.14-0.11,0.2-0.1c0.03,0.01,0.07,0.03,0.12,0.07
						c0.23,0.26,0.31,0.49,0.24,0.69c-0.08,0.13-0.17,0.28-0.29,0.45c-0.11,0.17-0.28,0.42-0.51,0.76c0.04,0.03,0.48-0.09,1.31-0.35
						c0.18-0.05,0.38-0.11,0.6-0.18c0.23-0.07,0.42-0.12,0.56-0.16C42.1,6.76,42.2,6.73,42.24,6.71z"/>
				</g>
			</g>
			<path class="st0" d="M9.6,34.82C9.52,34.91,9.43,35,9.33,35.09c-0.1,0.09-0.22,0.18-0.36,0.28c-0.27,0.19-0.46,0.3-0.55,0.31
				c-0.09,0.04-0.16,0.04-0.2,0.02c-0.04-0.02-0.07-0.04-0.08-0.04c-0.23-0.21-0.57-0.52-1-0.94c-0.02,0-0.22,0.15-0.57,0.45
				c-0.36,0.3-0.89,0.74-1.6,1.32c-0.78,0.66-1.34,1.12-1.66,1.37c-0.1,0.08-0.23,0.02-0.39-0.17c-0.01-0.01-0.03-0.03-0.04-0.05
				c-0.19-0.23-0.22-0.39-0.11-0.48c0.27-0.24,0.82-0.71,1.65-1.41c1.33-1.13,2.01-1.72,2.03-1.78c-0.43-0.53-0.71-0.91-0.86-1.14
				c-0.04-0.13-0.03-0.23,0.03-0.29c0.23-0.18,0.46-0.34,0.69-0.46c0.22-0.13,0.41-0.22,0.55-0.26c0.03,0,0.07,0,0.11,0.01
				c0.03,0.01,0.07,0.03,0.12,0.06c0.09,0.06,0.22,0.17,0.38,0.34c0.17,0.17,0.45,0.46,0.82,0.88c0.33,0.35,0.6,0.64,0.81,0.86
				c0.21,0.22,0.35,0.38,0.44,0.47c0.02,0.03,0.05,0.05,0.06,0.07c0.08,0.09,0.11,0.15,0.1,0.17C9.69,34.7,9.66,34.75,9.6,34.82z"/>
			<path class="st0" d="M13.22,38.03c0.12-0.06,0.25-0.03,0.41,0.09c0.02,0.02,0.04,0.03,0.05,0.05c0.18,0.16,0.22,0.31,0.14,0.46
				c-0.13,0.26-0.71,1.09-1.75,2.5c-1.03,1.41-1.72,2.33-2.07,2.77c-0.12,0.15-0.22,0.24-0.3,0.26c-0.08,0.02-0.2-0.02-0.37-0.12
				c-0.23-0.14-0.7-0.49-1.42-1.07c-0.14-0.12-0.3-0.24-0.47-0.38c-0.27-0.22-0.68-0.54-1.22-0.98C6.09,41.51,6.02,41.4,6,41.29
				c-0.02-0.11,0.04-0.27,0.19-0.48c0.29-0.35,0.74-0.94,1.35-1.77c0.6-0.79,1.36-1.76,2.28-2.91c0.05-0.06,0.09-0.12,0.14-0.18
				c0.1-0.13,0.2-0.19,0.27-0.19c0.08,0.01,0.17,0.04,0.28,0.1c0.13,0.07,0.22,0.14,0.28,0.22c0.06,0.08,0.04,0.21-0.04,0.37
				c-1,1.48-1.77,2.64-2.31,3.48c-0.08,0.17-0.12,0.29-0.11,0.37c0.01,0.08,0.1,0.18,0.26,0.31c0.45,0.37,0.74,0.6,0.86,0.71
				c0.12,0.11,0.27,0.18,0.44,0.22c0.19,0.02,0.35-0.03,0.48-0.16c0.13-0.13,0.22-0.23,0.27-0.3c0.16-0.2,0.47-0.59,0.95-1.18
				C12.51,38.75,13.06,38.12,13.22,38.03z"/>
			<path class="st0" d="M16.52,39.08c0.37,0.04,0.72,0.1,1.06,0.18c0.27,0.07,0.45,0.13,0.52,0.19c0.05,0.06,0.07,0.16,0.05,0.31
				c-0.02,0.15-0.11,0.55-0.27,1.19c-0.09,0.39-0.17,0.68-0.21,0.85c-0.05,0.17-0.1,0.34-0.16,0.5c-0.05,0.16-0.11,0.26-0.18,0.29
				c-0.07,0.04-0.14,0.06-0.21,0.07c-0.07,0.01-0.18,0.02-0.33,0.01c-0.33-0.01-0.52,0.01-0.58,0.05c-0.01,0.01-0.01,0.02-0.02,0.03
				c-0.02,0.07,0.06,0.24,0.22,0.52c0.96,1.62,1.43,2.57,1.42,2.84c0,0.03-0.01,0.07-0.02,0.13c-0.11,0.17-0.24,0.27-0.39,0.27
				c-0.06-0.01-0.33-0.48-0.79-1.4c-0.68-1.22-1.07-1.84-1.19-1.87c-0.02,0-0.1,0.31-0.25,0.93c-0.03,0.13-0.08,0.33-0.14,0.6
				c-0.02,0.09-0.05,0.21-0.09,0.37c-0.03,0.16-0.05,0.26-0.07,0.32c-0.09,0.36-0.17,0.61-0.25,0.76c-0.08,0.14-0.16,0.24-0.24,0.28
				c-0.08,0.04-0.26,0.07-0.53,0.1c-0.03,0.01-0.06,0.01-0.08,0.01c-0.26,0.03-0.43,0.04-0.48,0.03c-0.03-0.01-0.1-0.05-0.2-0.14
				c-0.11-0.08-0.15-0.16-0.14-0.25c0.04-0.28,0.15-0.82,0.32-1.61c0.17-0.79,0.35-1.58,0.54-2.36c0.05-0.21,0.13-0.53,0.23-0.95
				c0.32-1.32,0.51-2,0.59-2.06c0.09-0.07,0.35-0.14,0.77-0.18C15.83,39.06,16.2,39.05,16.52,39.08z M17.47,40
				c-0.06-0.07-0.15-0.14-0.28-0.2c-0.02-0.01-0.07-0.03-0.14-0.04c-0.14-0.03-0.3-0.05-0.47-0.06c-0.17-0.01-0.27,0-0.31,0.03
				c-0.02,0.03-0.12,0.37-0.31,1.03c-0.05,0.17-0.12,0.44-0.21,0.79c-0.02,0.08-0.03,0.13-0.01,0.18c0.02,0.03,0.05,0.06,0.09,0.07
				c0.21,0.05,0.45,0.07,0.73,0.06c0.27-0.01,0.44-0.04,0.5-0.09c0.09-0.09,0.19-0.38,0.31-0.86C17.49,40.38,17.52,40.08,17.47,40z"
				/>
			<path class="st0" d="M20.84,39.54c0.74-0.16,1.18-0.25,1.33-0.27c0.32-0.05,0.53-0.03,0.64,0.06c0.08,0.05,0.14,0.14,0.19,0.29
				c0.05,0.15,0.13,0.47,0.24,0.98c0.1,0.49,0.18,0.86,0.21,1.12c0.02,0.14,0.03,0.22,0.03,0.24c-0.01,0.14-0.09,0.25-0.23,0.33
				c-0.14,0.08-0.44,0.18-0.9,0.3c-0.56,0.14-0.87,0.25-0.91,0.32c-0.05,0.05,0.01,0.62,0.18,1.72c0.14,0.96,0.25,1.47,0.33,1.52
				c0.05,0.03,0.15,0.03,0.31,0.01c0.16-0.02,0.37-0.07,0.64-0.13c0.27-0.06,0.42-0.1,0.45-0.11c0.08-0.03,0.13-0.07,0.15-0.12
				c0.01-0.05,0.02-0.11,0.01-0.17c0-0.07-0.01-0.16-0.03-0.27c-0.04-0.27-0.04-0.46-0.01-0.57c0.04-0.1,0.13-0.16,0.28-0.18
				c0.16-0.02,0.29,0.02,0.36,0.14c0.08,0.11,0.17,0.36,0.26,0.74c0.05,0.28,0.09,0.45,0.1,0.52c0.07,0.44,0.03,0.72-0.1,0.83
				c-0.1,0.08-0.65,0.21-1.65,0.38c-0.1,0.02-0.23,0.04-0.38,0.07c-0.16,0.02-0.27,0.04-0.33,0.05c-0.5,0.07-0.84,0.1-1.03,0.08
				c-0.18-0.03-0.33-0.13-0.46-0.29c-0.12-0.16-0.21-0.35-0.28-0.58c-0.07-0.24-0.15-0.69-0.25-1.35c-0.03-0.19-0.12-0.82-0.26-1.88
				c-0.08-0.62-0.2-1.57-0.37-2.82c-0.01-0.06,0-0.13,0.05-0.22c0.05-0.1,0.14-0.2,0.28-0.3C19.91,39.81,20.3,39.67,20.84,39.54z
				 M22.55,40.7c0-0.05,0-0.1-0.01-0.14c0-0.04,0-0.08-0.01-0.11c0-0.01-0.01-0.05-0.02-0.14c-0.02-0.09-0.08-0.13-0.19-0.13
				c-0.09,0.01-0.22,0.03-0.4,0.06c-0.44,0.07-0.69,0.15-0.77,0.22c-0.08,0.08-0.1,0.26-0.05,0.56c0.05,0.32,0.1,0.54,0.16,0.68
				c0.02,0.05,0.04,0.09,0.07,0.12c0.02,0.03,0.07,0.04,0.15,0.03c0.04-0.01,0.1-0.02,0.16-0.03c0.06-0.02,0.13-0.04,0.21-0.06
				c0.34-0.09,0.56-0.19,0.64-0.31C22.57,41.32,22.59,41.07,22.55,40.7z"/>
		</g>
	</g>
	<g>
		<g>
			<g>
				<path class="st1" d="M25.49,2.74c0.13-0.02,0.53-0.06,1.21-0.12c0.06,0,0.14-0.01,0.24-0.01c0.09-0.01,0.15-0.02,0.19-0.02
					c0.28-0.02,0.49,0.02,0.61,0.13c0.05,0.03,0.09,0.07,0.14,0.11c0.05,0.04,0.07,0.1,0.08,0.19c0.03,0.44,0.07,1.1,0.12,1.97
					c0.09,1.41,0.11,2.21,0.06,2.41c-0.09,0.35-0.38,0.53-0.86,0.56c-0.17,0.01-0.45,0.03-0.85,0.05c-0.4,0.02-0.61,0.05-0.64,0.08
					c-0.02,0.03,0,0.51,0.08,1.43c0.02,0.27,0.03,0.47,0.04,0.61c0.01,0.14,0.02,0.27,0.02,0.37c0.01,0.04,0,0.09-0.04,0.14
					c-0.03,0.06-0.07,0.1-0.14,0.11c-0.05,0.01-0.11,0.02-0.18,0.02c-0.05,0-0.11,0-0.17,0c-0.15,0.01-0.25,0-0.31-0.02
					c-0.07-0.02-0.12-0.06-0.15-0.1c-0.03-0.04-0.06-0.13-0.06-0.27c-0.04-0.6-0.11-1.49-0.19-2.69c-0.03-0.53-0.1-1.57-0.21-3.14
					c-0.04,0-0.12-0.01-0.23-0.03c-0.12-0.1-0.19-0.2-0.19-0.28c0-0.04,0.01-0.15,0.03-0.35c0.04-0.3,0.09-0.53,0.15-0.71
					c0.06-0.13,0.15-0.22,0.29-0.28C24.65,2.86,24.98,2.8,25.49,2.74z M27.13,5.08c-0.01-0.07-0.04-0.22-0.07-0.44
					c-0.01-0.06-0.04-0.12-0.08-0.16c-0.03-0.03-0.1-0.05-0.2-0.05c-0.11,0.01-0.27,0.01-0.47,0.02c-0.04,0-0.09,0-0.14,0
					c-0.06,0-0.11,0.01-0.13,0.01c-0.28,0.02-0.43,0.06-0.44,0.14c-0.01,0.06,0,0.25,0.02,0.59c0.01,0.09,0.01,0.21,0.02,0.37
					c0.01,0.09,0.02,0.29,0.05,0.57c0,0.07,0.02,0.13,0.05,0.18c0.04,0.06,0.08,0.08,0.13,0.08c0.05-0.01,0.12-0.02,0.22-0.02
					c0.47-0.04,0.78-0.11,0.92-0.2c0.14-0.09,0.2-0.28,0.19-0.57C27.18,5.45,27.16,5.28,27.13,5.08z"/>
				<path class="st1" d="M30.81,5.65c0.06,0.01,0.1,0.01,0.14,0.02c0.04,0.01,0.08,0.01,0.12,0.02c0.05,0.02,0.08,0.04,0.11,0.06
					c0.02,0.02,0.03,0.07,0.04,0.13c0.01,0.13,0.01,0.27,0,0.43l-0.03,0.24c-0.03,0.2-0.09,0.5-0.16,0.89
					c-0.09,0.43-0.18,0.93-0.25,1.48C30.76,9,30.74,9.11,30.72,9.26c-0.03,0.15-0.04,0.27-0.05,0.35c-0.04,0.35-0.06,0.56-0.09,0.61
					c-0.04,0.07-0.08,0.11-0.13,0.11c-0.13,0.03-0.35,0.03-0.64,0.01c-0.16-0.01-0.27-0.03-0.34-0.04c-0.06,0-0.11,0-0.13-0.01
					c-0.02-0.01-0.05-0.04-0.08-0.09c-0.02-0.05-0.03-0.11-0.02-0.18c0.01-0.07,0.02-0.14,0.02-0.19c0-0.01,0.01-0.04,0.01-0.09
					c0.03-0.21,0.12-0.79,0.27-1.75c0.13-0.77,0.22-1.31,0.28-1.63c0.03-0.16,0.06-0.3,0.08-0.39c0.05-0.15,0.1-0.23,0.17-0.26
					C30.2,5.69,30.45,5.66,30.81,5.65z M31.16,3.37c0.06,0.01,0.1,0.01,0.14,0.02c0.04,0.01,0.08,0.01,0.12,0.02
					c0.05,0.02,0.08,0.04,0.11,0.06c0.02,0.02,0.03,0.07,0.04,0.13c0,0.04,0,0.12,0,0.22c-0.01,0.1-0.02,0.19-0.03,0.28
					c-0.01,0.2-0.03,0.34-0.04,0.44c-0.01,0.09-0.02,0.14-0.03,0.17c-0.04,0.07-0.08,0.1-0.14,0.1c-0.13,0.03-0.34,0.03-0.64,0.01
					c-0.15-0.01-0.27-0.02-0.34-0.02c-0.07-0.01-0.11-0.02-0.13-0.02c-0.03,0-0.05-0.03-0.08-0.09c-0.03-0.05-0.03-0.1-0.03-0.17
					c0.05-0.33,0.08-0.54,0.1-0.62c0.01-0.08,0.02-0.14,0.04-0.19c0.05-0.15,0.1-0.23,0.17-0.26C30.55,3.4,30.8,3.38,31.16,3.37z"/>
				<path class="st1" d="M34.61,3.75c0.45-0.01,1.01,0.08,1.66,0.26c0.08,0.02,0.16,0.04,0.22,0.06c0.21,0.07,0.32,0.12,0.33,0.17
					c0.03,0.13-0.04,0.48-0.2,1.05c-0.09,0.33-0.16,0.53-0.22,0.61c-0.1,0.14-0.21,0.2-0.32,0.17C36,6.06,35.93,6.03,35.86,5.97
					c-0.07-0.05-0.11-0.11-0.12-0.17c0-0.05,0.02-0.14,0.07-0.28c0.05-0.14,0.07-0.26,0.08-0.35c0.01-0.05,0-0.08-0.02-0.1
					c-0.02-0.01-0.03-0.02-0.05-0.03c-0.09-0.03-0.17-0.05-0.25-0.07c-0.08-0.02-0.14-0.03-0.19-0.03
					c-0.04,0.01-0.07,0.04-0.09,0.07c-0.05,0.1-0.24,0.63-0.55,1.59c-0.32,0.95-0.61,1.9-0.87,2.84c-0.07,0.24-0.17,0.59-0.3,1.07
					c-0.03,0.13-0.04,0.22-0.02,0.26c0.01,0.04,0.05,0.07,0.11,0.09c0.12,0.04,0.29,0.09,0.52,0.15c0.23,0.07,0.4,0.13,0.53,0.17
					c0.03,0,0.06,0.02,0.08,0.05c0.02,0.02,0.03,0.05,0.03,0.09c0,0.03,0,0.07-0.02,0.12c-0.02,0.07-0.07,0.16-0.13,0.28
					c-0.12,0.19-0.21,0.3-0.28,0.33c-0.03,0.01-0.07,0.02-0.11,0.01c-0.05,0-0.09,0-0.12-0.01c-0.17-0.05-0.53-0.15-1.09-0.33
					c-0.1-0.03-0.19-0.06-0.27-0.09c-0.62-0.2-0.96-0.33-1-0.39c-0.09-0.09-0.13-0.2-0.12-0.34c0-0.14,0.07-0.42,0.19-0.86
					c0.12-0.49,0.37-1.37,0.76-2.63c0.14-0.46,0.27-0.88,0.39-1.25c0.28-0.88,0.5-1.51,0.64-1.87c0.14-0.3,0.29-0.47,0.47-0.52
					C34.16,3.76,34.32,3.75,34.61,3.75z"/>
				<path class="st1" d="M42.13,6.64c0.16-0.03,0.29-0.02,0.41,0.05c0.03,0.02,0.05,0.03,0.07,0.04c0.08,0.07,0.13,0.17,0.13,0.29
					c0,0.11-0.12,0.35-0.36,0.73c-0.12,0.17-0.22,0.32-0.32,0.44c-0.09,0.12-0.2,0.19-0.32,0.23c-0.07,0.02-0.22,0.07-0.45,0.14
					c-1.17,0.36-1.79,0.59-1.87,0.69c-0.05,0.06,0.03,0.44,0.23,1.14c0.22,0.73,0.38,1.29,0.48,1.69c0.03,0.11,0.06,0.25,0.1,0.44
					c0.03,0.16,0.03,0.27-0.01,0.34c-0.01,0.01-0.02,0.02-0.02,0.02c-0.3,0.32-0.56,0.55-0.76,0.71c-0.2,0.15-0.35,0.24-0.45,0.27
					c-0.07,0.01-0.14,0-0.21-0.04c-0.08-0.03-0.12-0.05-0.13-0.06c-0.01-0.01-0.03-0.02-0.06-0.03c-0.05-0.04-0.11-0.16-0.18-0.34
					c-0.08-0.18-0.18-0.53-0.31-1.04c-0.3-1.13-0.5-1.82-0.61-2.08c-0.02,0-0.04-0.01-0.07-0.02c-0.02,0-0.05,0.01-0.07,0.03
					c-0.16,0.22-0.29,0.41-0.4,0.57c-0.1,0.17-0.23,0.36-0.38,0.57c-0.06,0.09-0.18,0.27-0.35,0.55c-0.18,0.27-0.3,0.45-0.36,0.52
					c-0.07,0.06-0.17,0.08-0.31,0.04c-0.09-0.02-0.17-0.05-0.25-0.09c-0.04-0.03-0.08-0.05-0.12-0.08
					c-0.06-0.05-0.09-0.11-0.11-0.16c-0.01-0.05,0.02-0.12,0.07-0.21c0.01-0.01,0.01-0.02,0.02-0.03c0.37-0.55,0.9-1.33,1.59-2.35
					c0.69-1.03,1.27-1.87,1.74-2.52c0.51-0.72,0.88-1.23,1.11-1.55c0.07-0.07,0.14-0.11,0.2-0.1c0.03,0.01,0.07,0.03,0.12,0.07
					c0.23,0.26,0.31,0.49,0.24,0.69C40.09,6.34,40,6.49,39.88,6.66c-0.11,0.17-0.28,0.42-0.51,0.76c0.04,0.03,0.48-0.09,1.31-0.35
					c0.18-0.05,0.38-0.11,0.6-0.18c0.23-0.07,0.42-0.12,0.56-0.16C42,6.69,42.09,6.66,42.13,6.64z"/>
			</g>
		</g>
		<path class="st1" d="M9.6,34.82C9.52,34.91,9.43,35,9.33,35.09c-0.1,0.09-0.22,0.18-0.36,0.28c-0.27,0.19-0.46,0.3-0.55,0.31
			c-0.09,0.04-0.16,0.04-0.2,0.02c-0.04-0.02-0.07-0.04-0.08-0.04c-0.23-0.21-0.57-0.52-1-0.94c-0.02,0-0.22,0.15-0.57,0.45
			c-0.36,0.3-0.89,0.74-1.6,1.32c-0.78,0.66-1.34,1.12-1.66,1.37c-0.1,0.08-0.23,0.02-0.39-0.17c-0.01-0.01-0.03-0.03-0.04-0.05
			c-0.19-0.23-0.22-0.39-0.11-0.48c0.27-0.24,0.82-0.71,1.65-1.41c1.33-1.13,2.01-1.72,2.03-1.78c-0.43-0.53-0.71-0.91-0.86-1.14
			c-0.04-0.13-0.03-0.23,0.03-0.29c0.23-0.18,0.46-0.34,0.69-0.46c0.22-0.13,0.41-0.22,0.55-0.26c0.03,0,0.07,0,0.11,0.01
			c0.03,0.01,0.07,0.03,0.12,0.06c0.09,0.06,0.22,0.17,0.38,0.34c0.17,0.17,0.45,0.46,0.82,0.88c0.33,0.35,0.6,0.64,0.81,0.86
			c0.21,0.22,0.35,0.38,0.44,0.47c0.02,0.03,0.05,0.05,0.06,0.07c0.08,0.09,0.11,0.15,0.1,0.17C9.69,34.7,9.66,34.75,9.6,34.82z"/>
		<path class="st1" d="M13.22,38.03c0.12-0.06,0.25-0.03,0.41,0.09c0.02,0.02,0.04,0.03,0.05,0.05c0.18,0.16,0.22,0.31,0.14,0.46
			c-0.13,0.26-0.71,1.09-1.75,2.5c-1.03,1.41-1.72,2.33-2.07,2.77c-0.12,0.15-0.22,0.24-0.3,0.26c-0.08,0.02-0.2-0.02-0.37-0.12
			c-0.23-0.14-0.7-0.49-1.42-1.07c-0.14-0.12-0.3-0.24-0.47-0.38c-0.27-0.22-0.68-0.54-1.22-0.98C6.09,41.51,6.02,41.4,6,41.29
			c-0.02-0.11,0.04-0.27,0.19-0.48c0.29-0.35,0.74-0.94,1.35-1.77c0.6-0.79,1.36-1.76,2.28-2.91c0.05-0.06,0.09-0.12,0.14-0.18
			c0.1-0.13,0.2-0.19,0.27-0.19c0.08,0.01,0.17,0.04,0.28,0.1c0.13,0.07,0.22,0.14,0.28,0.22c0.06,0.08,0.04,0.21-0.04,0.37
			c-1,1.48-1.77,2.64-2.31,3.48c-0.08,0.17-0.12,0.29-0.11,0.37c0.01,0.08,0.1,0.18,0.26,0.31c0.45,0.37,0.74,0.6,0.86,0.71
			c0.12,0.11,0.27,0.18,0.44,0.22c0.19,0.02,0.35-0.03,0.48-0.16c0.13-0.13,0.22-0.23,0.27-0.3c0.16-0.2,0.47-0.59,0.95-1.18
			C12.51,38.75,13.06,38.12,13.22,38.03z"/>
		<path class="st1" d="M16.52,39.08c0.37,0.04,0.72,0.1,1.06,0.18c0.27,0.07,0.45,0.13,0.52,0.19c0.05,0.06,0.07,0.16,0.05,0.31
			c-0.02,0.15-0.11,0.55-0.27,1.19c-0.09,0.39-0.17,0.68-0.21,0.85c-0.05,0.17-0.1,0.34-0.16,0.5c-0.05,0.16-0.11,0.26-0.18,0.29
			c-0.07,0.04-0.14,0.06-0.21,0.07c-0.07,0.01-0.18,0.02-0.33,0.01c-0.33-0.01-0.52,0.01-0.58,0.05c-0.01,0.01-0.01,0.02-0.02,0.03
			c-0.02,0.07,0.06,0.24,0.22,0.52c0.96,1.62,1.43,2.57,1.42,2.84c0,0.03-0.01,0.07-0.02,0.13c-0.11,0.17-0.24,0.27-0.39,0.27
			c-0.06-0.01-0.33-0.48-0.79-1.4c-0.68-1.22-1.07-1.84-1.19-1.87c-0.02,0-0.1,0.31-0.25,0.93c-0.03,0.13-0.08,0.33-0.14,0.6
			c-0.02,0.09-0.05,0.21-0.09,0.37c-0.03,0.16-0.05,0.26-0.07,0.32c-0.09,0.36-0.17,0.61-0.25,0.76c-0.08,0.14-0.16,0.24-0.24,0.28
			c-0.08,0.04-0.26,0.07-0.53,0.1c-0.03,0.01-0.06,0.01-0.08,0.01c-0.26,0.03-0.43,0.04-0.48,0.03c-0.03-0.01-0.1-0.05-0.2-0.14
			c-0.11-0.08-0.15-0.16-0.14-0.25c0.04-0.28,0.15-0.82,0.32-1.61c0.17-0.79,0.35-1.58,0.54-2.36c0.05-0.21,0.13-0.53,0.23-0.95
			c0.32-1.32,0.51-2,0.59-2.06c0.09-0.07,0.35-0.14,0.77-0.18C15.83,39.06,16.2,39.05,16.52,39.08z M17.47,40
			c-0.06-0.07-0.15-0.14-0.28-0.2c-0.02-0.01-0.07-0.03-0.14-0.04c-0.14-0.03-0.3-0.05-0.47-0.06c-0.17-0.01-0.27,0-0.31,0.03
			c-0.02,0.03-0.12,0.37-0.31,1.03c-0.05,0.17-0.12,0.44-0.21,0.79c-0.02,0.08-0.03,0.13-0.01,0.18c0.02,0.03,0.05,0.06,0.09,0.07
			c0.21,0.05,0.45,0.07,0.73,0.06c0.27-0.01,0.44-0.04,0.5-0.09c0.09-0.09,0.19-0.38,0.31-0.86C17.49,40.38,17.52,40.08,17.47,40z"
			/>
		<path class="st1" d="M20.84,39.54c0.74-0.16,1.18-0.25,1.33-0.27c0.32-0.05,0.53-0.03,0.64,0.06c0.08,0.05,0.14,0.14,0.19,0.29
			c0.05,0.15,0.13,0.47,0.24,0.98c0.1,0.49,0.18,0.86,0.21,1.12c0.02,0.14,0.03,0.22,0.03,0.24c-0.01,0.14-0.09,0.25-0.23,0.33
			c-0.14,0.08-0.44,0.18-0.9,0.3c-0.56,0.14-0.87,0.25-0.91,0.32c-0.05,0.05,0.01,0.62,0.18,1.72c0.14,0.96,0.25,1.47,0.33,1.52
			c0.05,0.03,0.15,0.03,0.31,0.01c0.16-0.02,0.37-0.07,0.64-0.13c0.27-0.06,0.42-0.1,0.45-0.11c0.08-0.03,0.13-0.07,0.15-0.12
			c0.01-0.05,0.02-0.11,0.01-0.17c0-0.07-0.01-0.16-0.03-0.27c-0.04-0.27-0.04-0.46-0.01-0.57c0.04-0.1,0.13-0.16,0.28-0.18
			c0.16-0.02,0.29,0.02,0.36,0.14c0.08,0.11,0.17,0.36,0.26,0.74c0.05,0.28,0.09,0.45,0.1,0.52c0.07,0.44,0.03,0.72-0.1,0.83
			c-0.1,0.08-0.65,0.21-1.65,0.38c-0.1,0.02-0.23,0.04-0.38,0.07c-0.16,0.02-0.27,0.04-0.33,0.05c-0.5,0.07-0.84,0.1-1.03,0.08
			c-0.18-0.03-0.33-0.13-0.46-0.29c-0.12-0.16-0.21-0.35-0.28-0.58c-0.07-0.24-0.15-0.69-0.25-1.35c-0.03-0.19-0.12-0.82-0.26-1.88
			c-0.08-0.62-0.2-1.57-0.37-2.82c-0.01-0.06,0-0.13,0.05-0.22c0.05-0.1,0.14-0.2,0.28-0.3C19.91,39.81,20.3,39.67,20.84,39.54z
			 M22.55,40.7c0-0.05,0-0.1-0.01-0.14c0-0.04,0-0.08-0.01-0.11c0-0.01-0.01-0.05-0.02-0.14c-0.02-0.09-0.08-0.13-0.19-0.13
			c-0.09,0.01-0.22,0.03-0.4,0.06c-0.44,0.07-0.69,0.15-0.77,0.22c-0.08,0.08-0.1,0.26-0.05,0.56c0.05,0.32,0.1,0.54,0.16,0.68
			c0.02,0.05,0.04,0.09,0.07,0.12c0.02,0.03,0.07,0.04,0.15,0.03c0.04-0.01,0.1-0.02,0.16-0.03c0.06-0.02,0.13-0.04,0.21-0.06
			c0.34-0.09,0.56-0.19,0.64-0.31C22.57,41.32,22.59,41.07,22.55,40.7z"/>
		<circle class="st2" cx="25.73" cy="25.24" r="6.62"/>
		<path class="st3" d="M25.69,18.59c-3.78,0-6.85,3.07-6.85,6.85c0,3.78,3.07,6.85,6.85,6.85c3.78,0,6.85-3.07,6.85-6.85
			C32.54,21.66,29.47,18.59,25.69,18.59z M24.82,24.9c-1.25,1.21-2.92,1.52-3.72,0.69c-0.8-0.83-0.44-2.49,0.81-3.7
			c1.25-1.21,2.92-1.52,3.72-0.69C26.44,22.04,26.08,23.69,24.82,24.9z M29.65,29.44c-0.7,0.68-1.63,0.85-2.08,0.39
			c-0.45-0.47-0.24-1.39,0.46-2.07c0.7-0.68,1.63-0.85,2.08-0.38C30.56,27.84,30.35,28.76,29.65,29.44z"/>
		<path class="st4" d="M26.01,37.31h0.07c3.75-0.01,7.05-1.08,9.83-2.55l-7.16,6.95c-0.71,0.69-0.73,1.83-0.04,2.54
			c0.69,0.71,1.83,0.73,2.54,0.04l7.09-6.88l-2.62,7.09c-0.34,0.93,0.13,1.96,1.06,2.31c0.93,0.34,1.96-0.13,2.31-1.06l3.4-9.2v4.43
			c0,0.99,0.8,1.8,1.8,1.8c0.99,0,1.51-0.83,1.8-1.8c0,0,2.73-8.48,0-15.43s-11.13-11.2-16.93-11.95l-0.18-0.01
			c-0.68,0-1.23,0.55-1.23,1.23c0,0.56,0.37,1.03,0.88,1.18l0.06,0.02c4.07,1.16,7.04,4.91,7.04,9.35c0,5.33-4.29,9.66-9.61,9.72
			l-0.11,0c-0.62,0-1.13,0.5-1.13,1.12C24.88,36.81,25.39,37.31,26.01,37.31z"/>
		<path class="st4" d="M25.37,13.56H25.3c-3.75,0.01-7.05,1.08-9.83,2.55l7.16-6.95c0.71-0.69,0.73-1.83,0.04-2.54
			c-0.69-0.71-1.83-0.73-2.54-0.04l-7.09,6.88l2.62-7.09C16,5.45,15.53,4.41,14.6,4.07c-0.93-0.34-1.96,0.13-2.31,1.06l-3.4,9.2V9.9
			c0-0.99-0.8-1.8-1.8-1.8c-0.99,0-1.51,0.83-1.8,1.8c0,0-2.73,8.48,0,15.43s11.13,11.2,16.93,11.95l0.18,0.01
			c0.68,0,1.23-0.55,1.23-1.23c0-0.56-0.37-1.03-0.88-1.18l-0.06-0.02c-4.07-1.16-7.04-4.91-7.04-9.35c0-5.33,4.29-9.66,9.61-9.72
			l0.11,0c0.62,0,1.13-0.5,1.13-1.12C26.5,14.06,25.99,13.56,25.37,13.56z"/>
		<g>
			<g>
				<path class="st5" d="M25.6,2.81c0.13-0.02,0.53-0.06,1.21-0.12c0.06,0,0.14-0.01,0.24-0.01c0.09-0.01,0.15-0.02,0.19-0.02
					c0.28-0.02,0.49,0.02,0.61,0.13c0.05,0.03,0.09,0.07,0.14,0.11c0.05,0.04,0.07,0.1,0.08,0.19c0.03,0.44,0.07,1.1,0.12,1.97
					c0.09,1.41,0.11,2.21,0.06,2.41C28.16,7.81,27.87,8,27.38,8.03c-0.17,0.01-0.45,0.03-0.85,0.05c-0.4,0.02-0.61,0.05-0.64,0.08
					c-0.02,0.03,0,0.51,0.08,1.43C25.98,9.86,26,10.07,26,10.2c0.01,0.14,0.02,0.27,0.02,0.37c0.01,0.04,0,0.09-0.04,0.14
					c-0.03,0.06-0.07,0.1-0.14,0.11c-0.05,0.01-0.11,0.02-0.18,0.02c-0.05,0-0.11,0-0.17,0c-0.15,0.01-0.25,0-0.31-0.02
					c-0.07-0.02-0.12-0.06-0.15-0.1c-0.03-0.04-0.06-0.13-0.06-0.27c-0.04-0.6-0.11-1.49-0.19-2.69c-0.03-0.53-0.1-1.57-0.21-3.14
					c-0.04,0-0.12-0.01-0.23-0.03c-0.12-0.1-0.19-0.2-0.19-0.28c0-0.04,0.01-0.15,0.03-0.35c0.04-0.3,0.09-0.53,0.15-0.71
					c0.06-0.13,0.15-0.22,0.29-0.28C24.76,2.93,25.09,2.87,25.6,2.81z M27.24,5.15c-0.01-0.07-0.04-0.22-0.07-0.44
					c-0.01-0.06-0.04-0.12-0.08-0.16c-0.03-0.03-0.1-0.05-0.2-0.05c-0.11,0.01-0.27,0.01-0.47,0.02c-0.04,0-0.09,0-0.14,0
					c-0.06,0-0.11,0.01-0.13,0.01c-0.28,0.02-0.43,0.06-0.44,0.14c-0.01,0.06,0,0.25,0.02,0.59c0.01,0.09,0.01,0.21,0.02,0.37
					c0.01,0.09,0.02,0.29,0.05,0.57c0,0.07,0.02,0.13,0.05,0.18c0.04,0.06,0.08,0.08,0.13,0.08c0.05-0.01,0.12-0.02,0.22-0.02
					c0.47-0.04,0.78-0.11,0.92-0.2c0.14-0.09,0.2-0.28,0.19-0.57C27.29,5.52,27.27,5.35,27.24,5.15z"/>
				<path class="st5" d="M30.91,5.72c0.06,0.01,0.1,0.01,0.14,0.02c0.04,0.01,0.08,0.01,0.12,0.02c0.05,0.02,0.08,0.04,0.11,0.06
					c0.02,0.02,0.03,0.07,0.04,0.13c0.01,0.13,0.01,0.27,0,0.43l-0.03,0.24c-0.03,0.2-0.09,0.5-0.16,0.89
					c-0.09,0.43-0.18,0.93-0.25,1.48c-0.01,0.09-0.03,0.21-0.05,0.35c-0.03,0.15-0.04,0.27-0.05,0.35
					c-0.04,0.35-0.06,0.56-0.09,0.61c-0.04,0.07-0.08,0.11-0.13,0.11c-0.13,0.03-0.35,0.03-0.64,0.01
					c-0.16-0.01-0.27-0.03-0.34-0.04c-0.06,0-0.11,0-0.13-0.01c-0.02-0.01-0.05-0.04-0.08-0.09c-0.02-0.05-0.03-0.11-0.02-0.18
					c0.01-0.07,0.02-0.14,0.02-0.19c0-0.01,0.01-0.04,0.01-0.09c0.03-0.21,0.12-0.79,0.27-1.75c0.13-0.77,0.22-1.31,0.28-1.63
					c0.03-0.16,0.06-0.3,0.08-0.39c0.05-0.15,0.1-0.23,0.17-0.26C30.31,5.75,30.56,5.73,30.91,5.72z M31.26,3.44
					c0.06,0.01,0.1,0.01,0.14,0.02c0.04,0.01,0.08,0.01,0.12,0.02c0.05,0.02,0.08,0.04,0.11,0.06c0.02,0.02,0.03,0.07,0.04,0.13
					c0,0.04,0,0.12,0,0.22c-0.01,0.1-0.02,0.19-0.03,0.28c-0.01,0.2-0.03,0.34-0.04,0.44c-0.01,0.09-0.02,0.14-0.03,0.17
					c-0.04,0.07-0.08,0.1-0.14,0.1C31.3,4.9,31.09,4.9,30.79,4.88c-0.15-0.01-0.27-0.02-0.34-0.02c-0.07-0.01-0.11-0.02-0.13-0.02
					c-0.03,0-0.05-0.03-0.08-0.09c-0.03-0.05-0.03-0.1-0.03-0.17c0.05-0.33,0.08-0.54,0.1-0.62c0.01-0.08,0.02-0.14,0.04-0.19
					c0.05-0.15,0.1-0.23,0.17-0.26C30.66,3.47,30.91,3.44,31.26,3.44z"/>
				<path class="st5" d="M34.72,3.82c0.45-0.01,1.01,0.08,1.66,0.26c0.08,0.02,0.16,0.04,0.22,0.06c0.21,0.07,0.32,0.12,0.33,0.17
					c0.03,0.13-0.04,0.48-0.2,1.05c-0.09,0.33-0.16,0.53-0.22,0.61c-0.1,0.14-0.21,0.2-0.32,0.17c-0.09-0.02-0.16-0.06-0.23-0.11
					c-0.07-0.05-0.11-0.11-0.12-0.17c0-0.05,0.02-0.14,0.07-0.28c0.05-0.14,0.07-0.26,0.08-0.35c0.01-0.05,0-0.08-0.02-0.1
					c-0.02-0.01-0.03-0.02-0.05-0.03c-0.09-0.03-0.17-0.05-0.25-0.07c-0.08-0.02-0.14-0.03-0.19-0.03
					c-0.04,0.01-0.07,0.04-0.09,0.07c-0.05,0.1-0.24,0.63-0.55,1.59c-0.32,0.95-0.61,1.9-0.87,2.84c-0.07,0.24-0.17,0.59-0.3,1.07
					c-0.03,0.13-0.04,0.22-0.02,0.26c0.01,0.04,0.05,0.07,0.11,0.09c0.12,0.04,0.29,0.09,0.52,0.15c0.23,0.07,0.4,0.13,0.53,0.17
					c0.03,0,0.06,0.02,0.08,0.05c0.02,0.02,0.03,0.05,0.03,0.09c0,0.03,0,0.07-0.02,0.12c-0.02,0.07-0.07,0.16-0.13,0.28
					c-0.12,0.19-0.21,0.3-0.28,0.33c-0.03,0.01-0.07,0.02-0.11,0.01c-0.05,0-0.09,0-0.12-0.01c-0.17-0.05-0.53-0.15-1.09-0.33
					c-0.1-0.03-0.19-0.06-0.27-0.09c-0.62-0.2-0.96-0.33-1-0.39c-0.09-0.09-0.13-0.2-0.12-0.34c0-0.14,0.07-0.42,0.19-0.86
					c0.12-0.49,0.37-1.37,0.76-2.63c0.14-0.46,0.27-0.88,0.39-1.25c0.28-0.88,0.5-1.51,0.64-1.87c0.14-0.3,0.29-0.47,0.47-0.52
					C34.27,3.83,34.43,3.82,34.72,3.82z"/>
				<path class="st5" d="M42.24,6.71c0.16-0.03,0.29-0.02,0.41,0.05c0.03,0.02,0.05,0.03,0.07,0.04c0.08,0.07,0.13,0.17,0.13,0.29
					c0,0.11-0.12,0.35-0.36,0.73C42.37,8,42.27,8.15,42.17,8.27c-0.09,0.12-0.2,0.19-0.32,0.23c-0.07,0.02-0.22,0.07-0.45,0.14
					C40.23,9,39.61,9.23,39.54,9.33c-0.05,0.06,0.03,0.44,0.23,1.14c0.22,0.73,0.38,1.29,0.48,1.69c0.03,0.11,0.06,0.25,0.1,0.44
					c0.03,0.16,0.03,0.27-0.01,0.34c-0.01,0.01-0.02,0.02-0.02,0.02c-0.3,0.32-0.56,0.55-0.76,0.71c-0.2,0.15-0.35,0.24-0.45,0.27
					c-0.07,0.01-0.14,0-0.21-0.04c-0.08-0.03-0.12-0.05-0.13-0.06c-0.01-0.01-0.03-0.02-0.06-0.03c-0.05-0.04-0.11-0.16-0.18-0.34
					c-0.08-0.18-0.18-0.53-0.31-1.04c-0.3-1.13-0.5-1.82-0.61-2.08c-0.02,0-0.04-0.01-0.07-0.02c-0.02,0-0.05,0.01-0.07,0.03
					c-0.16,0.22-0.29,0.41-0.4,0.57c-0.1,0.17-0.23,0.36-0.38,0.57c-0.06,0.09-0.18,0.27-0.35,0.55c-0.18,0.27-0.3,0.45-0.36,0.52
					c-0.07,0.06-0.17,0.08-0.31,0.04c-0.09-0.02-0.17-0.05-0.25-0.09c-0.04-0.03-0.08-0.05-0.12-0.08
					c-0.06-0.05-0.09-0.11-0.11-0.16c-0.01-0.05,0.02-0.12,0.07-0.21c0.01-0.01,0.01-0.02,0.02-0.03c0.37-0.55,0.9-1.33,1.59-2.35
					c0.69-1.03,1.27-1.87,1.74-2.52c0.51-0.72,0.88-1.23,1.11-1.55c0.07-0.07,0.14-0.11,0.2-0.1c0.03,0.01,0.07,0.03,0.12,0.07
					c0.23,0.26,0.31,0.49,0.24,0.69c-0.08,0.13-0.17,0.28-0.29,0.45c-0.11,0.17-0.28,0.42-0.51,0.76c0.04,0.03,0.48-0.09,1.31-0.35
					c0.18-0.05,0.38-0.11,0.6-0.18c0.23-0.07,0.42-0.12,0.56-0.16C42.1,6.76,42.2,6.73,42.24,6.71z"/>
			</g>
		</g>
		<path class="st5" d="M9.6,34.82C9.52,34.91,9.43,35,9.33,35.09c-0.1,0.09-0.22,0.18-0.36,0.28c-0.27,0.19-0.46,0.3-0.55,0.31
			c-0.09,0.04-0.16,0.04-0.2,0.02c-0.04-0.02-0.07-0.04-0.08-0.04c-0.23-0.21-0.57-0.52-1-0.94c-0.02,0-0.22,0.15-0.57,0.45
			c-0.36,0.3-0.89,0.74-1.6,1.32c-0.78,0.66-1.34,1.12-1.66,1.37c-0.1,0.08-0.23,0.02-0.39-0.17c-0.01-0.01-0.03-0.03-0.04-0.05
			c-0.19-0.23-0.22-0.39-0.11-0.48c0.27-0.24,0.82-0.71,1.65-1.41c1.33-1.13,2.01-1.72,2.03-1.78c-0.43-0.53-0.71-0.91-0.86-1.14
			c-0.04-0.13-0.03-0.23,0.03-0.29c0.23-0.18,0.46-0.34,0.69-0.46c0.22-0.13,0.41-0.22,0.55-0.26c0.03,0,0.07,0,0.11,0.01
			c0.03,0.01,0.07,0.03,0.12,0.06c0.09,0.06,0.22,0.17,0.38,0.34c0.17,0.17,0.45,0.46,0.82,0.88c0.33,0.35,0.6,0.64,0.81,0.86
			c0.21,0.22,0.35,0.38,0.44,0.47c0.02,0.03,0.05,0.05,0.06,0.07c0.08,0.09,0.11,0.15,0.1,0.17C9.69,34.7,9.66,34.75,9.6,34.82z"/>
		<path class="st5" d="M13.22,38.03c0.12-0.06,0.25-0.03,0.41,0.09c0.02,0.02,0.04,0.03,0.05,0.05c0.18,0.16,0.22,0.31,0.14,0.46
			c-0.13,0.26-0.71,1.09-1.75,2.5c-1.03,1.41-1.72,2.33-2.07,2.77c-0.12,0.15-0.22,0.24-0.3,0.26c-0.08,0.02-0.2-0.02-0.37-0.12
			c-0.23-0.14-0.7-0.49-1.42-1.07c-0.14-0.12-0.3-0.24-0.47-0.38c-0.27-0.22-0.68-0.54-1.22-0.98C6.09,41.51,6.02,41.4,6,41.29
			c-0.02-0.11,0.04-0.27,0.19-0.48c0.29-0.35,0.74-0.94,1.35-1.77c0.6-0.79,1.36-1.76,2.28-2.91c0.05-0.06,0.09-0.12,0.14-0.18
			c0.1-0.13,0.2-0.19,0.27-0.19c0.08,0.01,0.17,0.04,0.28,0.1c0.13,0.07,0.22,0.14,0.28,0.22c0.06,0.08,0.04,0.21-0.04,0.37
			c-1,1.48-1.77,2.64-2.31,3.48c-0.08,0.17-0.12,0.29-0.11,0.37c0.01,0.08,0.1,0.18,0.26,0.31c0.45,0.37,0.74,0.6,0.86,0.71
			c0.12,0.11,0.27,0.18,0.44,0.22c0.19,0.02,0.35-0.03,0.48-0.16c0.13-0.13,0.22-0.23,0.27-0.3c0.16-0.2,0.47-0.59,0.95-1.18
			C12.51,38.75,13.06,38.12,13.22,38.03z"/>
		<path class="st5" d="M16.52,39.08c0.37,0.04,0.72,0.1,1.06,0.18c0.27,0.07,0.45,0.13,0.52,0.19c0.05,0.06,0.07,0.16,0.05,0.31
			c-0.02,0.15-0.11,0.55-0.27,1.19c-0.09,0.39-0.17,0.68-0.21,0.85c-0.05,0.17-0.1,0.34-0.16,0.5c-0.05,0.16-0.11,0.26-0.18,0.29
			c-0.07,0.04-0.14,0.06-0.21,0.07c-0.07,0.01-0.18,0.02-0.33,0.01c-0.33-0.01-0.52,0.01-0.58,0.05c-0.01,0.01-0.01,0.02-0.02,0.03
			c-0.02,0.07,0.06,0.24,0.22,0.52c0.96,1.62,1.43,2.57,1.42,2.84c0,0.03-0.01,0.07-0.02,0.13c-0.11,0.17-0.24,0.27-0.39,0.27
			c-0.06-0.01-0.33-0.48-0.79-1.4c-0.68-1.22-1.07-1.84-1.19-1.87c-0.02,0-0.1,0.31-0.25,0.93c-0.03,0.13-0.08,0.33-0.14,0.6
			c-0.02,0.09-0.05,0.21-0.09,0.37c-0.03,0.16-0.05,0.26-0.07,0.32c-0.09,0.36-0.17,0.61-0.25,0.76c-0.08,0.14-0.16,0.24-0.24,0.28
			c-0.08,0.04-0.26,0.07-0.53,0.1c-0.03,0.01-0.06,0.01-0.08,0.01c-0.26,0.03-0.43,0.04-0.48,0.03c-0.03-0.01-0.1-0.05-0.2-0.14
			c-0.11-0.08-0.15-0.16-0.14-0.25c0.04-0.28,0.15-0.82,0.32-1.61c0.17-0.79,0.35-1.58,0.54-2.36c0.05-0.21,0.13-0.53,0.23-0.95
			c0.32-1.32,0.51-2,0.59-2.06c0.09-0.07,0.35-0.14,0.77-0.18C15.83,39.06,16.2,39.05,16.52,39.08z M17.47,40
			c-0.06-0.07-0.15-0.14-0.28-0.2c-0.02-0.01-0.07-0.03-0.14-0.04c-0.14-0.03-0.3-0.05-0.47-0.06c-0.17-0.01-0.27,0-0.31,0.03
			c-0.02,0.03-0.12,0.37-0.31,1.03c-0.05,0.17-0.12,0.44-0.21,0.79c-0.02,0.08-0.03,0.13-0.01,0.18c0.02,0.03,0.05,0.06,0.09,0.07
			c0.21,0.05,0.45,0.07,0.73,0.06c0.27-0.01,0.44-0.04,0.5-0.09c0.09-0.09,0.19-0.38,0.31-0.86C17.49,40.38,17.52,40.08,17.47,40z"
			/>
		<path class="st5" d="M20.84,39.54c0.74-0.16,1.18-0.25,1.33-0.27c0.32-0.05,0.53-0.03,0.64,0.06c0.08,0.05,0.14,0.14,0.19,0.29
			c0.05,0.15,0.13,0.47,0.24,0.98c0.1,0.49,0.18,0.86,0.21,1.12c0.02,0.14,0.03,0.22,0.03,0.24c-0.01,0.14-0.09,0.25-0.23,0.33
			c-0.14,0.08-0.44,0.18-0.9,0.3c-0.56,0.14-0.87,0.25-0.91,0.32c-0.05,0.05,0.01,0.62,0.18,1.72c0.14,0.96,0.25,1.47,0.33,1.52
			c0.05,0.03,0.15,0.03,0.31,0.01c0.16-0.02,0.37-0.07,0.64-0.13c0.27-0.06,0.42-0.1,0.45-0.11c0.08-0.03,0.13-0.07,0.15-0.12
			c0.01-0.05,0.02-0.11,0.01-0.17c0-0.07-0.01-0.16-0.03-0.27c-0.04-0.27-0.04-0.46-0.01-0.57c0.04-0.1,0.13-0.16,0.28-0.18
			c0.16-0.02,0.29,0.02,0.36,0.14c0.08,0.11,0.17,0.36,0.26,0.74c0.05,0.28,0.09,0.45,0.1,0.52c0.07,0.44,0.03,0.72-0.1,0.83
			c-0.1,0.08-0.65,0.21-1.65,0.38c-0.1,0.02-0.23,0.04-0.38,0.07c-0.16,0.02-0.27,0.04-0.33,0.05c-0.5,0.07-0.84,0.1-1.03,0.08
			c-0.18-0.03-0.33-0.13-0.46-0.29c-0.12-0.16-0.21-0.35-0.28-0.58c-0.07-0.24-0.15-0.69-0.25-1.35c-0.03-0.19-0.12-0.82-0.26-1.88
			c-0.08-0.62-0.2-1.57-0.37-2.82c-0.01-0.06,0-0.13,0.05-0.22c0.05-0.1,0.14-0.2,0.28-0.3C19.91,39.81,20.3,39.67,20.84,39.54z
			 M22.55,40.7c0-0.05,0-0.1-0.01-0.14c0-0.04,0-0.08-0.01-0.11c0-0.01-0.01-0.05-0.02-0.14c-0.02-0.09-0.08-0.13-0.19-0.13
			c-0.09,0.01-0.22,0.03-0.4,0.06c-0.44,0.07-0.69,0.15-0.77,0.22c-0.08,0.08-0.1,0.26-0.05,0.56c0.05,0.32,0.1,0.54,0.16,0.68
			c0.02,0.05,0.04,0.09,0.07,0.12c0.02,0.03,0.07,0.04,0.15,0.03c0.04-0.01,0.1-0.02,0.16-0.03c0.06-0.02,0.13-0.04,0.21-0.06
			c0.34-0.09,0.56-0.19,0.64-0.31C22.57,41.32,22.59,41.07,22.55,40.7z"/>
	</g>
</g>
</svg>
